<svg width="34" height="34" viewBox="0 0 34 34" fill="none" xmlns="http://www.w3.org/2000/svg">
<path d="M27.2 17C27.2 19.7052 26.1254 22.2996 24.2125 24.2125C22.2996 26.1254 19.7052 27.2 17 27.2C14.2948 27.2 11.7004 26.1254 9.78751 24.2125C7.87464 22.2996 6.8 19.7052 6.8 17C6.8 16.4186 6.8612 15.8508 6.9666 15.3H3.4V28.8898C3.4 29.835 4.165 30.6 5.1102 30.6H28.8932C29.3462 30.5991 29.7803 30.4185 30.1003 30.0979C30.4203 29.7773 30.6 29.3428 30.6 28.8898V15.3H27.0334C27.1388 15.8508 27.2 16.4186 27.2 17ZM17 23.8C17.8932 23.7998 18.7776 23.6236 19.6028 23.2816C20.4279 22.9396 21.1776 22.4384 21.809 21.8066C22.4405 21.1749 22.9413 20.4249 23.2829 19.5996C23.6245 18.7743 23.8002 17.8898 23.8 16.9966C23.7998 16.1034 23.6236 15.219 23.2816 14.3938C22.9396 13.5687 22.4384 12.819 21.8066 12.1876C21.1749 11.5561 20.4249 11.0553 19.5996 10.7137C18.7743 10.3721 17.8898 10.1964 16.9966 10.1966C15.1927 10.1971 13.4628 10.9141 12.1876 12.19C10.9123 13.4659 10.1961 15.1961 10.1966 17C10.1971 18.8039 10.9141 20.5338 12.19 21.809C13.4659 23.0843 15.1961 23.8005 17 23.8ZM25.16 9.86H29.2366C29.5074 9.86 29.7672 9.75265 29.9591 9.56146C30.1509 9.37027 30.2591 9.11083 30.26 8.84V4.7634C30.26 4.49198 30.1522 4.23167 29.9603 4.03975C29.7683 3.84782 29.508 3.74 29.2366 3.74H25.16C24.8886 3.74 24.6283 3.84782 24.4363 4.03975C24.2444 4.23167 24.1366 4.49198 24.1366 4.7634V8.84C24.14 9.401 24.599 9.86 25.16 9.86ZM34 30.2226C34 32.3 32.3 34 30.2226 34H3.7774C1.7 34 0 32.3 0 30.2226V3.7774C0 1.7 1.7 0 3.7774 0H30.2226C32.3 0 34 1.7 34 3.7774V30.2226Z" fill="#FEF8FF"/>
</svg>
