<svg width="34" height="28" viewBox="0 0 34 28" fill="none" xmlns="http://www.w3.org/2000/svg">
<path d="M30.5065 6.88028C30.5254 7.17506 30.5254 7.48238 30.5254 7.78344C30.5254 16.9906 23.5134 27.5964 10.6999 27.5964C6.74857 27.5964 3.08578 26.4486 0 24.473C0.564471 24.5357 1.10386 24.5608 1.68087 24.5608C4.94226 24.5608 7.94023 23.4569 10.3298 21.5879C7.26914 21.5252 4.69766 19.5182 3.81959 16.7585C4.89209 16.9153 5.85796 16.9153 6.96182 16.6331C5.38585 16.3129 3.96933 15.457 2.95292 14.2108C1.9365 12.9646 1.38287 11.4049 1.38609 9.79672V9.70891C2.30806 10.2295 3.3931 10.5493 4.52832 10.5932C3.574 9.95724 2.79136 9.09558 2.2498 8.08467C1.70824 7.07376 1.4245 5.94484 1.42372 4.79801C1.42372 3.49972 1.76241 2.31433 2.37078 1.28574C4.12003 3.43911 6.30283 5.2003 8.77731 6.45483C11.2518 7.70936 13.9626 8.42915 16.7334 8.56742C15.7488 3.83213 19.2861 0 23.5385 0C25.5455 0 27.3518 0.840435 28.625 2.19517C30.1992 1.90039 31.7045 1.31083 33.0467 0.520567C32.5261 2.13245 31.4348 3.49345 29.986 4.3527C31.3909 4.20218 32.7456 3.81332 34 3.26766C33.0529 4.66003 31.8676 5.89559 30.5065 6.88028Z" fill="#FEF8FF"/>
</svg>
