<svg width="30" height="31" viewBox="0 0 30 31" fill="none" xmlns="http://www.w3.org/2000/svg">
<path d="M24.7658 17.9998C25.5067 16.6886 25.9774 15.2424 26.1502 13.7464C26.3231 12.2504 26.1945 10.7349 25.7723 9.28934C25.663 8.91682 25.3633 8.63108 24.986 8.5394C24.6088 8.44791 24.2113 8.56442 23.9434 8.84524C23.6755 9.12627 23.5776 9.52876 23.687 9.90123C23.8907 10.5794 24.0121 11.2795 24.049 11.9866C24.1479 13.9062 23.6345 15.8078 22.5828 17.417C22.4675 17.5934 22.4061 17.7997 22.4061 18.0106C22.4061 18.2215 22.4675 18.4279 22.5828 18.6043L26.7134 24.9474L24.2371 24.6832L24.2373 24.683C23.9856 24.6528 23.7313 24.7115 23.5184 24.8491C23.3057 24.9866 23.1475 25.1943 23.0716 25.436L22.3475 27.811L18.3834 21.7578C18.2589 21.5681 18.0781 21.422 17.8665 21.3402C17.6548 21.2583 17.4228 21.245 17.2031 21.3018C15.8209 21.6587 14.375 21.691 12.9782 21.3958C12.7645 21.3517 12.5423 21.373 12.3409 21.4569C12.1394 21.541 11.9679 21.6836 11.8487 21.8665L7.95332 27.811L7.20395 25.436C7.12847 25.1977 6.97318 24.9925 6.76416 24.8553C6.55513 24.7181 6.30507 24.6573 6.05628 24.683L3.57996 24.9472L7.47188 18.9885C7.5888 18.8068 7.6487 18.5942 7.64418 18.3783C7.63967 18.1622 7.57095 17.9524 7.44644 17.7758C6.09464 15.8884 5.51043 13.5579 5.81239 11.2557C6.11434 8.95397 7.27966 6.85281 9.07272 5.37792C10.8658 3.90325 13.1522 3.16475 15.4688 3.31247C17.1486 3.41791 18.7659 3.98963 20.1388 4.96338C20.3727 5.14964 20.6726 5.23129 20.9684 5.18923C21.2642 5.14718 21.5296 4.98513 21.7021 4.74123C21.8749 4.49733 21.9393 4.1931 21.8804 3.90018C21.8217 3.60726 21.6449 3.35147 21.3916 3.19309C19.2652 1.69095 16.6849 0.970101 14.088 1.15285C11.4912 1.33559 9.03711 2.4107 7.14212 4.19594C6.01802 5.25728 5.12199 6.53645 4.50884 7.95578C3.8957 9.37484 3.57836 10.9041 3.5761 12.4502C3.57282 14.553 4.15848 16.6147 5.26677 18.402L1.27718 24.4951C1.03841 24.8678 0.949383 25.3171 1.02774 25.7528C1.1061 26.1885 1.3461 26.5786 1.69997 26.8447C2.05361 27.1109 2.49486 27.2338 2.93523 27.1885L5.40068 26.9206L6.14652 29.2882L6.14632 29.2884C6.28047 29.7128 6.57073 30.0706 6.95864 30.2892C7.34654 30.5077 7.80295 30.5709 8.23534 30.4656C8.66796 30.3606 9.04457 30.095 9.28871 29.7227L13.2711 23.6443C14.5025 23.823 15.755 23.7973 16.9782 23.5684L21.0004 29.7229C21.3173 30.2163 21.8622 30.5158 22.4484 30.5195C22.5303 30.5268 22.6127 30.5268 22.6946 30.5195C23.0269 30.4788 23.3401 30.343 23.5972 30.1285C23.854 29.9139 24.0435 29.6298 24.1428 29.3102L24.8813 26.9354L27.3467 27.2033C27.7896 27.2503 28.2339 27.1274 28.5896 26.8591C28.9453 26.5908 29.1857 26.1973 29.262 25.7584C29.3385 25.3196 29.2452 24.8681 29.0011 24.4954L24.7658 17.9998Z" fill="#FFB800" stroke="#FFB800" stroke-width="0.5"/>
<path d="M17.1991 7.17152C16.4752 7.16968 15.7648 7.36742 15.1463 7.74344C14.3406 7.26118 13.3904 7.07905 12.4634 7.22918C11.5367 7.37954 10.6925 7.85236 10.0804 8.56459C9.46853 9.27678 9.12777 10.1823 9.11858 11.1214C9.11469 11.1804 9.11469 11.2395 9.11858 11.2986C9.13335 11.6883 9.20535 12.0738 9.33212 12.4426C9.82813 14.0754 11.1929 15.6537 13.6294 17.4059V17.4061C14.0675 17.7231 14.5947 17.8929 15.1355 17.8913C15.676 17.8925 16.2038 17.7255 16.645 17.4133C19.1176 15.6322 20.5404 13.9704 20.9893 12.3449H20.9895C21.0904 12.0295 21.1489 11.7019 21.1632 11.371V11.1429C21.1604 10.0918 20.7421 9.08441 19.9993 8.3404C19.2567 7.59661 18.2502 7.17629 17.1991 7.17156L17.1991 7.17152ZM19.0091 11.237C19.0026 11.3908 18.9759 11.5428 18.9295 11.6895V11.733C18.6218 12.8624 17.4343 14.1767 15.4034 15.643C15.2588 15.7441 15.0664 15.7441 14.9219 15.643C12.9342 14.2165 11.7433 12.9242 11.4067 11.7982V11.7475C11.3447 11.5703 11.3092 11.3849 11.3016 11.1972V11.1465C11.3074 10.6704 11.5004 10.2159 11.8391 9.88129C12.1775 9.54652 12.6344 9.35862 13.1105 9.35842C13.5864 9.35801 14.0434 9.54529 14.3825 9.87945L15.1573 10.6614L15.9284 9.87945C16.2672 9.5375 16.7286 9.34465 17.21 9.34365C17.6943 9.34365 18.1587 9.53771 18.4988 9.88275C18.8391 10.2278 19.0269 10.6947 19.0201 11.1792L19.0091 11.237Z" fill="#FFB800"/>
<circle cx="14.7812" cy="12.2812" r="10.2812" stroke="#FFB800" stroke-width="3.25"/>
</svg>
