<svg width="1028" height="149" viewBox="0 0 1028 149" fill="none" xmlns="http://www.w3.org/2000/svg">
<g filter="url(#filter0_bd_283_13971)">
<rect x="17" y="13" width="994" height="115" rx="25" fill="#FEF8FF" fill-opacity="0.85" shape-rendering="crispEdges"/>
<rect x="18" y="14" width="992" height="113" rx="24" stroke="#FEF8FF" stroke-width="2" shape-rendering="crispEdges"/>
</g>
<path d="M76 74C76 72.3431 77.29 71 78.8812 71H953.119C954.71 71 956 72.3431 956 74C956 75.6569 954.71 77 953.119 77H78.8812C77.29 77 76 75.6569 76 74Z" fill="#FBEFFD"/>
<path d="M76 74C76 72.3431 76.3841 71 76.8578 71H337.142C337.616 71 338 72.3431 338 74C338 75.6569 337.616 77 337.142 77H76.8578C76.3841 77 76 75.6569 76 74Z" fill="#FFB800"/>
<path d="M87.1555 33.1835H85.1166L85.3351 31.4276C85.3666 31.1638 85.2871 30.8988 85.1166 30.6989C84.9419 30.495 84.6894 30.3791 84.4248 30.3814H68.0405C67.779 30.3818 67.5303 30.4973 67.3578 30.6989C67.1841 30.8974 67.1012 31.1624 67.1303 31.4276L67.3487 33.1835H65.3098C64.5855 33.1835 63.891 33.4787 63.3788 34.0041C62.8668 34.5297 62.5791 35.2423 62.5791 35.9856V38.7878C62.5791 40.0264 63.0586 41.2142 63.9122 42.0901C64.7657 42.9659 65.9232 43.458 67.1303 43.458H69.4606C70.9639 45.7906 73.5075 47.1936 76.2327 47.1936C78.958 47.1936 81.5017 45.7906 83.0049 43.458H85.3352C86.5422 43.458 87.6998 42.966 88.5533 42.0901C89.4068 41.2142 89.8864 40.0264 89.8864 38.7878V35.9856C89.8864 35.2423 89.5987 34.5297 89.0866 34.0041C88.5744 33.4787 87.88 33.1835 87.1556 33.1835H87.1555ZM67.1303 41.5899C66.4059 41.5899 65.7115 41.2947 65.1993 40.7693C64.6873 40.2437 64.3996 39.5311 64.3996 38.7878V35.9856C64.3996 35.7379 64.4955 35.5002 64.6661 35.3251C64.8368 35.15 65.0684 35.0516 65.3098 35.0516H67.5762L68.1679 39.8898C68.2413 40.4688 68.3723 41.0384 68.5594 41.5899H67.1303ZM88.0658 38.7878C88.0658 39.5311 87.7781 40.2437 87.2661 40.7693C86.7538 41.2947 86.0594 41.5899 85.3351 41.5899H83.9059C84.093 41.0384 84.2241 40.4688 84.2974 39.8898L84.889 35.0516H87.1555C87.3969 35.0516 87.6285 35.15 87.7992 35.3251C87.9698 35.5002 88.0657 35.7379 88.0657 35.9856L88.0658 38.7878Z" fill="#FFB800"/>
<path d="M84.8162 53.6204C84.613 53.1023 84.2635 52.6582 83.8127 52.3454C83.3618 52.0325 82.8301 51.8651 82.2858 51.8644H80.2561L79.9647 48.3057C77.5739 49.3145 74.8916 49.3145 72.5008 48.3057L72.2094 51.8644H70.1797C69.6344 51.8657 69.1018 52.0346 68.6507 52.3492C68.1999 52.6638 67.851 53.11 67.6493 53.6297L66.2839 57.123C66.1722 57.4109 66.2067 57.737 66.3763 57.9933C66.546 58.2497 66.8284 58.403 67.1303 58.4028H85.3351C85.637 58.403 85.9194 58.2497 86.0891 57.9933C86.2587 57.737 86.2933 57.411 86.1815 57.123L84.8162 53.6204Z" fill="#FFB800"/>
<path d="M76.3589 88C83.6001 88 89.3828 81.9909 89.3828 74.6877C89.3828 67.3846 83.6001 61.3755 76.3589 61.3755C69.1176 61.3755 63.335 67.3846 63.335 74.6877C63.335 81.9909 69.1176 88 76.3589 88Z" fill="#7F00FF" stroke="#FEF8FF" stroke-width="4"/>
<path d="M288.342 33.1835H286.303L286.521 31.4276C286.553 31.1638 286.473 30.8988 286.303 30.6989C286.128 30.495 285.875 30.3791 285.611 30.3814H269.227C268.965 30.3818 268.716 30.4973 268.544 30.6989C268.37 30.8974 268.287 31.1624 268.316 31.4276L268.535 33.1835H266.496C265.772 33.1835 265.077 33.4787 264.565 34.0041C264.053 34.5297 263.765 35.2423 263.765 35.9856V38.7878C263.765 40.0264 264.245 41.2142 265.098 42.0901C265.952 42.9659 267.109 43.458 268.316 43.458H270.647C272.15 45.7906 274.694 47.1936 277.419 47.1936C280.144 47.1936 282.688 45.7906 284.191 43.458H286.521C287.728 43.458 288.886 42.966 289.739 42.0901C290.593 41.2142 291.072 40.0264 291.072 38.7878V35.9856C291.072 35.2423 290.785 34.5297 290.273 34.0041C289.76 33.4787 289.066 33.1835 288.342 33.1835H288.342ZM268.316 41.5899C267.592 41.5899 266.898 41.2947 266.385 40.7693C265.873 40.2437 265.586 39.5311 265.586 38.7878V35.9856C265.586 35.7379 265.682 35.5002 265.852 35.3251C266.023 35.15 266.254 35.0516 266.496 35.0516H268.762L269.354 39.8898C269.427 40.4688 269.558 41.0384 269.745 41.5899H268.316ZM289.252 38.7878C289.252 39.5311 288.964 40.2437 288.452 40.7693C287.94 41.2947 287.245 41.5899 286.521 41.5899H285.092C285.279 41.0384 285.41 40.4688 285.483 39.8898L286.075 35.0516H288.342C288.583 35.0516 288.815 35.15 288.985 35.3251C289.156 35.5002 289.252 35.7379 289.252 35.9856L289.252 38.7878Z" fill="#FFB800"/>
<path d="M286.002 53.6204C285.799 53.1023 285.45 52.6582 284.999 52.3454C284.548 52.0325 284.016 51.8651 283.472 51.8644H281.442L281.151 48.3057C278.76 49.3145 276.078 49.3145 273.687 48.3057L273.395 51.8644H271.366C270.82 51.8657 270.288 52.0346 269.837 52.3492C269.386 52.6638 269.037 53.11 268.835 53.6297L267.47 57.123C267.358 57.4109 267.393 57.737 267.562 57.9933C267.732 58.2497 268.014 58.403 268.316 58.4028H286.521C286.823 58.403 287.105 58.2497 287.275 57.9933C287.445 57.737 287.479 57.411 287.368 57.123L286.002 53.6204Z" fill="#FFB800"/>
<path d="M277.544 88C284.786 88 290.568 81.9909 290.568 74.6877C290.568 67.3846 284.786 61.3755 277.544 61.3755C270.303 61.3755 264.521 67.3846 264.521 74.6877C264.521 81.9909 270.303 88 277.544 88Z" fill="#7F00FF" stroke="#FEF8FF" stroke-width="4"/>
<path d="M489.528 33.1835H487.489L487.707 31.4276C487.739 31.1638 487.659 30.8988 487.489 30.6989C487.314 30.495 487.061 30.3791 486.797 30.3814H470.413C470.151 30.3818 469.902 30.4973 469.73 30.6989C469.556 30.8974 469.473 31.1624 469.502 31.4276L469.721 33.1835H467.682C466.958 33.1835 466.263 33.4787 465.751 34.0041C465.239 34.5297 464.951 35.2423 464.951 35.9856V38.7878C464.951 40.0264 465.431 41.2142 466.284 42.0901C467.138 42.9659 468.295 43.458 469.502 43.458H471.833C473.336 45.7906 475.88 47.1936 478.605 47.1936C481.33 47.1936 483.874 45.7906 485.377 43.458H487.707C488.914 43.458 490.072 42.966 490.925 42.0901C491.779 41.2142 492.258 40.0264 492.258 38.7878V35.9856C492.258 35.2423 491.971 34.5297 491.459 34.0041C490.947 33.4787 490.252 33.1835 489.528 33.1835H489.528ZM469.502 41.5899C468.778 41.5899 468.084 41.2947 467.571 40.7693C467.059 40.2437 466.772 39.5311 466.772 38.7878V35.9856C466.772 35.7379 466.868 35.5002 467.038 35.3251C467.209 35.15 467.441 35.0516 467.682 35.0516H469.948L470.54 39.8898C470.613 40.4688 470.744 41.0384 470.931 41.5899H469.502ZM490.438 38.7878C490.438 39.5311 490.15 40.2437 489.638 40.7693C489.126 41.2947 488.431 41.5899 487.707 41.5899H486.278C486.465 41.0384 486.596 40.4688 486.669 39.8898L487.261 35.0516H489.528C489.769 35.0516 490.001 35.15 490.171 35.3251C490.342 35.5002 490.438 35.7379 490.438 35.9856L490.438 38.7878Z" fill="#34007F"/>
<path d="M487.188 53.6204C486.985 53.1023 486.636 52.6582 486.185 52.3454C485.734 52.0325 485.202 51.8651 484.658 51.8644H482.628L482.337 48.3057C479.946 49.3145 477.264 49.3145 474.873 48.3057L474.581 51.8644H472.552C472.006 51.8657 471.474 52.0346 471.023 52.3492C470.572 52.6638 470.223 53.11 470.021 53.6297L468.656 57.123C468.544 57.4109 468.579 57.737 468.748 57.9933C468.918 58.2497 469.2 58.403 469.502 58.4028H487.707C488.009 58.403 488.291 58.2497 488.461 57.9933C488.631 57.737 488.665 57.411 488.554 57.123L487.188 53.6204Z" fill="#34007F"/>
<path d="M478.731 88C485.972 88 491.755 81.9909 491.755 74.6877C491.755 67.3846 485.972 61.3755 478.731 61.3755C471.49 61.3755 465.707 67.3846 465.707 74.6877C465.707 81.9909 471.49 88 478.731 88Z" fill="#34007F" stroke="#FEF8FF" stroke-width="4"/>
<path d="M690.714 33.1835H688.675L688.893 31.4276C688.925 31.1638 688.845 30.8988 688.675 30.6989C688.5 30.495 688.247 30.3791 687.983 30.3814H671.599C671.337 30.3818 671.088 30.4973 670.916 30.6989C670.742 30.8974 670.659 31.1624 670.688 31.4276L670.907 33.1835H668.868C668.144 33.1835 667.449 33.4787 666.937 34.0041C666.425 34.5297 666.137 35.2423 666.137 35.9856V38.7878C666.137 40.0264 666.617 41.2142 667.47 42.0901C668.324 42.9659 669.481 43.458 670.688 43.458H673.019C674.522 45.7906 677.066 47.1936 679.791 47.1936C682.516 47.1936 685.06 45.7906 686.563 43.458H688.893C690.1 43.458 691.258 42.966 692.111 42.0901C692.965 41.2142 693.444 40.0264 693.444 38.7878V35.9856C693.444 35.2423 693.157 34.5297 692.645 34.0041C692.133 33.4787 691.438 33.1835 690.714 33.1835H690.714ZM670.688 41.5899C669.964 41.5899 669.27 41.2947 668.757 40.7693C668.245 40.2437 667.958 39.5311 667.958 38.7878V35.9856C667.958 35.7379 668.054 35.5002 668.224 35.3251C668.395 35.15 668.627 35.0516 668.868 35.0516H671.134L671.726 39.8898C671.799 40.4688 671.93 41.0384 672.118 41.5899H670.688ZM691.624 38.7878C691.624 39.5311 691.336 40.2437 690.824 40.7693C690.312 41.2947 689.617 41.5899 688.893 41.5899H687.464C687.651 41.0384 687.782 40.4688 687.855 39.8898L688.447 35.0516H690.714C690.955 35.0516 691.187 35.15 691.357 35.3251C691.528 35.5002 691.624 35.7379 691.624 35.9856L691.624 38.7878Z" fill="#34007F"/>
<path d="M688.374 53.6204C688.171 53.1023 687.822 52.6582 687.371 52.3454C686.92 52.0325 686.388 51.8651 685.844 51.8644H683.814L683.523 48.3057C681.132 49.3145 678.45 49.3145 676.059 48.3057L675.767 51.8644H673.738C673.192 51.8657 672.66 52.0346 672.209 52.3492C671.758 52.6638 671.409 53.11 671.207 53.6297L669.842 57.123C669.73 57.4109 669.765 57.737 669.934 57.9933C670.104 58.2497 670.387 58.403 670.688 58.4028H688.893C689.195 58.403 689.478 58.2497 689.647 57.9933C689.817 57.737 689.851 57.411 689.74 57.123L688.374 53.6204Z" fill="#34007F"/>
<path d="M679.917 88C687.158 88 692.941 81.9909 692.941 74.6877C692.941 67.3846 687.158 61.3755 679.917 61.3755C672.676 61.3755 666.893 67.3846 666.893 74.6877C666.893 81.9909 672.676 88 679.917 88Z" fill="#34007F" stroke="#FEF8FF" stroke-width="4"/>
<path d="M891.9 33.1835H889.861L890.079 31.4276C890.111 31.1638 890.031 30.8988 889.861 30.6989C889.686 30.495 889.434 30.3791 889.169 30.3814H872.785C872.523 30.3818 872.274 30.4973 872.102 30.6989C871.928 30.8974 871.845 31.1624 871.874 31.4276L872.093 33.1835H870.054C869.33 33.1835 868.635 33.4787 868.123 34.0041C867.611 34.5297 867.323 35.2423 867.323 35.9856V38.7878C867.323 40.0264 867.803 41.2142 868.656 42.0901C869.51 42.9659 870.667 43.458 871.874 43.458H874.205C875.708 45.7906 878.252 47.1936 880.977 47.1936C883.702 47.1936 886.246 45.7906 887.749 43.458H890.079C891.286 43.458 892.444 42.966 893.297 42.0901C894.151 41.2142 894.63 40.0264 894.63 38.7878V35.9856C894.63 35.2423 894.343 34.5297 893.831 34.0041C893.319 33.4787 892.624 33.1835 891.9 33.1835H891.9ZM871.874 41.5899C871.15 41.5899 870.456 41.2947 869.943 40.7693C869.431 40.2437 869.144 39.5311 869.144 38.7878V35.9856C869.144 35.7379 869.24 35.5002 869.41 35.3251C869.581 35.15 869.813 35.0516 870.054 35.0516H872.32L872.912 39.8898C872.985 40.4688 873.116 41.0384 873.304 41.5899H871.874ZM892.81 38.7878C892.81 39.5311 892.522 40.2437 892.01 40.7693C891.498 41.2947 890.804 41.5899 890.079 41.5899H888.65C888.837 41.0384 888.968 40.4688 889.042 39.8898L889.633 35.0516H891.9C892.141 35.0516 892.373 35.15 892.543 35.3251C892.714 35.5002 892.81 35.7379 892.81 35.9856L892.81 38.7878Z" fill="#34007F"/>
<path d="M889.56 53.6204C889.357 53.1023 889.008 52.6582 888.557 52.3454C888.106 52.0325 887.574 51.8651 887.03 51.8644H885L884.709 48.3057C882.318 49.3145 879.636 49.3145 877.245 48.3057L876.954 51.8644H874.924C874.378 51.8657 873.846 52.0346 873.395 52.3492C872.944 52.6638 872.595 53.11 872.393 53.6297L871.028 57.123C870.916 57.4109 870.951 57.737 871.12 57.9933C871.29 58.2497 871.573 58.403 871.874 58.4028H890.079C890.381 58.403 890.664 58.2497 890.833 57.9933C891.003 57.737 891.037 57.411 890.926 57.123L889.56 53.6204Z" fill="#34007F"/>
<path d="M881.103 88C888.344 88 894.127 81.9909 894.127 74.6877C894.127 67.3846 888.344 61.3755 881.103 61.3755C873.862 61.3755 868.079 67.3846 868.079 74.6877C868.079 81.9909 873.862 88 881.103 88Z" fill="#34007F" stroke="#FEF8FF" stroke-width="4"/>
<defs>
<filter id="filter0_bd_283_13971" x="-1" y="-5" width="1030" height="154" filterUnits="userSpaceOnUse" color-interpolation-filters="sRGB">
<feFlood flood-opacity="0" result="BackgroundImageFix"/>
<feGaussianBlur in="BackgroundImage" stdDeviation="9"/>
<feComposite in2="SourceAlpha" operator="in" result="effect1_backgroundBlur_283_13971"/>
<feColorMatrix in="SourceAlpha" type="matrix" values="0 0 0 0 0 0 0 0 0 0 0 0 0 0 0 0 0 0 127 0" result="hardAlpha"/>
<feOffset dy="4"/>
<feGaussianBlur stdDeviation="8.5"/>
<feComposite in2="hardAlpha" operator="out"/>
<feColorMatrix type="matrix" values="0 0 0 0 0.203922 0 0 0 0 0 0 0 0 0 0.498039 0 0 0 0.25 0"/>
<feBlend mode="normal" in2="effect1_backgroundBlur_283_13971" result="effect2_dropShadow_283_13971"/>
<feBlend mode="normal" in="SourceGraphic" in2="effect2_dropShadow_283_13971" result="shape"/>
</filter>
</defs>
</svg>
