<svg width="29" height="29" viewBox="0 0 29 29" fill="none" xmlns="http://www.w3.org/2000/svg">
<path d="M25.5276 3.18348H23.4887L23.7071 1.42758C23.7386 1.16384 23.6592 0.898844 23.4887 0.698915C23.314 0.495009 23.0614 0.379086 22.7969 0.381381H6.41259C6.1511 0.381798 5.90241 0.497304 5.72991 0.698915C5.5562 0.897402 5.4733 1.16239 5.50235 1.42758L5.72077 3.18348H3.68189C2.95755 3.18348 2.26311 3.4787 1.75088 4.00411C1.23887 4.52972 0.951172 5.24234 0.951172 5.98562V8.78777C0.951172 10.0264 1.43068 11.2142 2.28423 12.0901C3.13778 12.9659 4.29528 13.458 5.50236 13.458H7.83262C9.33592 15.7906 11.8795 17.1936 14.6048 17.1936C17.33 17.1936 19.8738 15.7906 21.377 13.458H23.7072C24.9143 13.458 26.0718 12.966 26.9254 12.0901C27.7789 11.2142 28.2584 10.0264 28.2584 8.78777V5.98562C28.2584 5.24234 27.9707 4.52974 27.4587 4.00411C26.9465 3.4787 26.2521 3.18348 25.5277 3.18348H25.5276ZM5.50235 11.5899C4.77801 11.5899 4.08358 11.2947 3.57135 10.7693C3.05934 10.2437 2.77164 9.53105 2.77164 8.78777V5.98562C2.77164 5.73794 2.86754 5.50025 3.03821 5.32512C3.20887 5.14999 3.4405 5.05158 3.68188 5.05158H5.94832L6.53997 9.88984C6.61332 10.4688 6.74437 11.0384 6.93149 11.5899H5.50235ZM26.4378 8.78777C26.4378 9.53105 26.1501 10.2437 25.6381 10.7693C25.1259 11.2947 24.4315 11.5899 23.7071 11.5899H22.2779C22.4651 11.0384 22.5961 10.4688 22.6695 9.88984L23.2611 5.05158H25.5276C25.7689 5.05158 26.0006 5.14999 26.1712 5.32512C26.3419 5.50025 26.4378 5.73794 26.4378 5.98562L26.4378 8.78777Z" fill="#34007F"/>
<path d="M23.1882 23.6204C22.9851 23.1023 22.6356 22.6582 22.1847 22.3454C21.7339 22.0325 21.2021 21.8651 20.6579 21.8644H18.6281L18.3368 18.3057C15.946 19.3145 13.2636 19.3145 10.8728 18.3057L10.5815 21.8644H8.55174C8.00643 21.8657 7.47386 22.0346 7.0228 22.3492C6.57194 22.6638 6.22309 23.11 6.02132 23.6297L4.65597 27.123C4.54422 27.4109 4.57876 27.737 4.74841 27.9933C4.91806 28.2497 5.20048 28.403 5.5024 28.4028H23.7072C24.0091 28.403 24.2915 28.2497 24.4612 27.9933C24.6308 27.737 24.6654 27.411 24.5536 27.123L23.1882 23.6204Z" fill="#34007F"/>
</svg>
