<svg width="29" height="29" viewBox="0 0 29 29" fill="none" xmlns="http://www.w3.org/2000/svg">
<path d="M25.3416 3.18348H23.3027L23.5211 1.42758C23.5526 1.16384 23.4731 0.898844 23.3027 0.698915C23.1279 0.495009 22.8754 0.379086 22.6108 0.381381H6.22656C5.96507 0.381798 5.71638 0.497304 5.54388 0.698915C5.37016 0.897402 5.28726 1.16239 5.31632 1.42758L5.53473 3.18348H3.49585C2.77151 3.18348 2.07708 3.4787 1.56485 4.00411C1.05283 4.52972 0.765137 5.24234 0.765137 5.98562V8.78777C0.765137 10.0264 1.24464 11.2142 2.09819 12.0901C2.95175 12.9659 4.10925 13.458 5.31633 13.458H7.64659C9.14989 15.7906 11.6935 17.1936 14.4188 17.1936C17.144 17.1936 19.6877 15.7906 21.1909 13.458H23.5212C24.7283 13.458 25.8858 12.966 26.7393 12.0901C27.5929 11.2142 28.0724 10.0264 28.0724 8.78777V5.98562C28.0724 5.24234 27.7847 4.52974 27.2727 4.00411C26.7605 3.4787 26.066 3.18348 25.3417 3.18348H25.3416ZM5.31632 11.5899C4.59198 11.5899 3.89754 11.2947 3.38531 10.7693C2.8733 10.2437 2.5856 9.53105 2.5856 8.78777V5.98562C2.5856 5.73794 2.68151 5.50025 2.85217 5.32512C3.02284 5.14999 3.25447 5.05158 3.49584 5.05158H5.76228L6.35394 9.88984C6.42729 10.4688 6.55834 11.0384 6.74546 11.5899H5.31632ZM26.2518 8.78777C26.2518 9.53105 25.9641 10.2437 25.4521 10.7693C24.9399 11.2947 24.2454 11.5899 23.5211 11.5899H22.0919C22.279 11.0384 22.4101 10.4688 22.4834 9.88984L23.0751 5.05158H25.3415C25.5829 5.05158 25.8145 5.14999 25.9852 5.32512C26.1559 5.50025 26.2518 5.73794 26.2518 5.98562L26.2518 8.78777Z" fill="#FFB800"/>
<path d="M23.0022 23.6204C22.799 23.1023 22.4495 22.6582 21.9987 22.3454C21.5478 22.0325 21.0161 21.8651 20.4718 21.8644H18.4421L18.1507 18.3057C15.7599 19.3145 13.0776 19.3145 10.6868 18.3057L10.3954 21.8644H8.3657C7.82039 21.8657 7.28782 22.0346 6.83676 22.3492C6.38591 22.6638 6.03705 23.11 5.83529 23.6297L4.46993 27.123C4.35819 27.4109 4.39272 27.737 4.56238 27.9933C4.73203 28.2497 5.01445 28.403 5.31637 28.4028H23.5211C23.8231 28.403 24.1055 28.2497 24.2751 27.9933C24.4448 27.737 24.4793 27.411 24.3676 27.123L23.0022 23.6204Z" fill="#FFB800"/>
</svg>
