<svg width="105" height="24" viewBox="0 0 105 24" fill="none" xmlns="http://www.w3.org/2000/svg">
<path d="M11.3183 15.6981L11.4981 14.7144L11.3183 15.6981ZM2.15615 23.1932C2.87278 21.9358 4.2175 20.0832 5.88188 18.6575C7.56994 17.2116 9.39454 16.363 11.1385 16.6818L11.4981 14.7144C8.86493 14.2331 6.43397 15.5512 4.5808 17.1386C2.70396 18.7462 1.22177 20.7936 0.418554 22.2029L2.15615 23.1932ZM11.1385 16.6818C13.7907 17.1665 17.0976 18.3778 20.7039 19.5259C24.2343 20.6499 28.0161 21.698 31.3802 21.698V19.698C28.3609 19.698 24.8475 18.7462 21.3107 17.6202C17.8497 16.5183 14.3174 15.2296 11.4981 14.7144L11.1385 16.6818ZM31.3802 21.698C32.4416 21.698 33.5528 21.2502 34.6318 20.6216C35.7294 19.9821 36.9028 19.0897 38.1121 18.0614C40.5243 16.0102 43.2142 13.2989 45.8684 10.7289C48.5508 8.13162 51.2027 5.67199 53.618 4.01474C54.8241 3.18715 55.9287 2.58987 56.9122 2.26873C57.8934 1.94837 58.6846 1.9245 59.3251 2.14399L59.9734 0.252005C58.7901 -0.153499 57.5295 -0.0367453 56.2915 0.367508C55.0558 0.770973 53.7738 1.48229 52.4864 2.36563C49.9147 4.13026 47.1522 6.70188 44.4771 9.29209C41.7739 11.9096 39.1634 14.5421 36.8165 16.5378C35.6463 17.5329 34.5756 18.3397 33.625 18.8935C32.6557 19.4583 31.9147 19.698 31.3802 19.698V21.698ZM59.3251 2.14399C60.9851 2.71287 63.0418 4.03151 65.3412 5.78264C67.623 7.52025 70.0483 9.6076 72.4528 11.648C74.8412 13.6747 77.2138 15.6592 79.3401 17.1364C80.4044 17.8759 81.432 18.5061 82.39 18.9543C83.3357 19.3969 84.2881 19.698 85.1826 19.698V17.698C84.7092 17.698 84.0658 17.5304 83.2376 17.1428C82.4216 16.761 81.4972 16.1998 80.4812 15.4939C78.4469 14.0806 76.146 12.1588 73.7469 10.123C71.3639 8.1009 68.8877 5.9695 66.553 4.19149C64.2359 2.42699 61.961 0.933129 59.9734 0.252005L59.3251 2.14399ZM85.1826 19.698C86.7071 19.698 88.478 19.285 90.2735 18.7134C92.0828 18.1373 93.9967 17.3734 95.8218 16.6229C97.6632 15.8656 99.4001 15.1282 100.914 14.5747C102.464 14.0082 103.62 13.698 104.333 13.698V11.698C103.221 11.698 101.756 12.1378 100.228 12.6963C98.6642 13.2678 96.8674 14.0304 95.0612 14.7731C93.2387 15.5226 91.391 16.2587 89.6667 16.8076C87.9286 17.361 86.3938 17.698 85.1826 17.698V19.698Z" fill="#FEF8FF"/>
</svg>
