<svg width="48" height="48" viewBox="0 0 48 48" fill="none" xmlns="http://www.w3.org/2000/svg">
<circle cx="24" cy="24" r="24" fill="#FBEFFD"/>
<path d="M19.2211 12.5033L18.8676 12.1498L19.2211 12.5033C19.7261 11.9984 20.3697 11.75 21.0095 11.75C21.6493 11.75 22.293 11.9984 22.7979 12.5033L32.5223 22.2277C33.4838 23.1892 33.4838 24.8003 32.5223 25.7617L32.5215 25.7625L22.798 35.5289C22.7979 35.529 22.7978 35.529 22.7978 35.5291C21.8363 36.4904 20.2254 36.4903 19.264 35.5289C18.3025 34.5675 18.3025 32.9564 19.264 31.9949L26.8892 24.3697L27.2438 24.0151L26.8883 23.6616L19.2211 16.0373C19.221 16.0371 19.2208 16.037 19.2207 16.0368C18.2597 15.0753 18.2598 13.4646 19.2211 12.5033Z" fill="#7F00FF" stroke="#FBEFFD"/>
</svg>
