<svg width="48" height="48" viewBox="0 0 48 48" fill="none" xmlns="http://www.w3.org/2000/svg">
<circle cx="24" cy="24" r="24" fill="#FBEFFD"/>
<path d="M28.0223 35.4967L28.3758 35.8502L28.0223 35.4967C27.5173 36.0016 26.8737 36.25 26.2339 36.25C25.5941 36.25 24.9504 36.0016 24.4455 35.4967L14.7211 25.7723C13.7596 24.8108 13.7596 23.1997 14.7211 22.2383L14.7219 22.2375L24.4454 12.4711C24.4455 12.471 24.4456 12.471 24.4456 12.4709C25.4071 11.5096 27.018 11.5097 27.9794 12.4711C28.9409 13.4325 28.9409 15.0436 27.9794 16.0051L20.3542 23.6303L19.9996 23.9849L20.3552 24.3384L28.0223 31.9627C28.0224 31.9629 28.0226 31.963 28.0227 31.9632C28.9837 32.9247 28.9836 34.5354 28.0223 35.4967Z" fill="#FEF8FF" stroke="#FBEFFD"/>
</svg>
