<svg width="73" height="72" viewBox="0 0 73 72" fill="none" xmlns="http://www.w3.org/2000/svg">
<g filter="url(#filter0_d_204_315)">
<circle cx="36.6013" cy="34.0001" r="32" fill="#7F00FF"/>
</g>
<path fill-rule="evenodd" clip-rule="evenodd" d="M26.2264 30.373C26.2264 24.782 30.7597 20.2495 36.3517 20.2495C41.9437 20.2495 46.4769 24.782 46.4769 30.373C46.4769 35.9641 41.9437 40.4966 36.3517 40.4966C30.7597 40.4966 26.2264 35.9641 26.2264 30.373ZM36.3517 17C28.9647 17 22.9764 22.9873 22.9764 30.373C22.9764 33.1104 23.799 35.6557 25.2105 37.7753L20.9181 44.3297C20.6452 44.7556 20.5435 45.2689 20.633 45.7668C20.7226 46.2647 20.9969 46.7105 21.4013 47.0145C21.8055 47.3188 22.3098 47.4592 22.8131 47.4074L25.6308 47.1013L26.4832 49.8067C26.6365 50.2917 26.968 50.7007 27.4114 50.9506C27.8547 51.2002 28.3763 51.2724 28.8705 51.1522C29.3649 51.0322 29.7953 50.7286 30.0743 50.3032L34.4582 43.6131C35.0768 43.7008 35.7089 43.7461 36.3517 43.7461C37.259 43.7461 38.1451 43.6558 39.0017 43.4836L43.4595 50.3035C43.8217 50.8672 44.4443 51.2095 45.1144 51.2137C45.2079 51.2221 45.3021 51.2221 45.3957 51.2137C45.7755 51.1673 46.1335 51.0121 46.4272 50.7669C46.7208 50.5217 46.9374 50.1971 47.0509 49.8319L47.8948 47.1182L50.7125 47.4243C51.2187 47.478 51.7265 47.3376 52.133 47.031C52.5395 46.7244 52.8143 46.2748 52.9015 45.7732C52.989 45.2718 52.8823 44.7559 52.6033 44.33L47.9019 37.1209C49.062 35.1401 49.727 32.8342 49.727 30.373C49.727 22.9873 43.7387 17 36.3517 17ZM46.3486 39.2577C45.0159 40.7556 43.3515 41.9521 41.4706 42.7318L44.999 48.1188L45.8266 45.4049C45.9133 45.1287 46.0941 44.8913 46.3372 44.7342C46.5805 44.5769 46.871 44.5101 47.1586 44.5446L48.5737 44.6955L49.9888 44.8465L46.3486 39.2577ZM31.9091 42.9907C29.9842 42.3133 28.261 41.2079 26.8537 39.7889L23.5499 44.8463L26.3801 44.5444C26.6644 44.5151 26.9502 44.5845 27.1891 44.7413C27.428 44.8981 27.6054 45.1325 27.6917 45.4049L28.5481 48.1188L31.9091 42.9907Z" fill="#FEF8FF"/>
<path d="M39.1151 24.5342C38.2878 24.5321 37.4759 24.758 36.769 25.1877C35.8481 24.6366 34.7622 24.4285 33.7028 24.6001C32.6436 24.7719 31.6789 25.3122 30.9793 26.126C30.28 26.9398 29.8906 27.9745 29.88 29.0476C29.8756 29.1151 29.8756 29.1826 29.88 29.2502C29.8969 29.6955 29.9792 30.136 30.1241 30.5574C30.691 32.4232 32.2507 34.2267 35.0354 36.2289V36.2292C35.5361 36.5913 36.1387 36.7854 36.7566 36.7835C37.3744 36.7849 37.9776 36.5941 38.4819 36.2374C41.3078 34.2021 42.9339 32.3033 43.4469 30.4458H43.4471C43.5624 30.0853 43.6293 29.711 43.6457 29.3329V29.0722C43.6424 27.8711 43.1644 26.72 42.3155 25.8699C41.4668 25.0199 40.3164 24.5396 39.1151 24.5342L39.1151 24.5342ZM41.1838 29.1798C41.1763 29.3556 41.1458 29.5293 41.0928 29.6969V29.7465C40.7412 31.0372 39.384 32.5389 37.0628 34.2144C36.8976 34.33 36.6777 34.33 36.5126 34.2144C34.2409 32.5844 32.8798 31.1077 32.4951 29.8211V29.7632C32.4243 29.5607 32.3837 29.3488 32.375 29.1343V29.0764C32.3816 28.5324 32.6022 28.0129 32.9892 27.6306C33.3761 27.2481 33.8982 27.0334 34.4423 27.0331C34.9862 27.0327 35.5085 27.2467 35.8961 27.6285L36.7815 28.5221L37.6628 27.6285C38.0501 27.2378 38.5774 27.0174 39.1276 27.0163C39.6811 27.0163 40.2119 27.238 40.6006 27.6323C40.9895 28.0266 41.204 28.5601 41.1963 29.1137L41.1838 29.1798Z" fill="#FEF8FF"/>
<defs>
<filter id="filter0_d_204_315" x="0.601299" y="6.10352e-05" width="72" height="72" filterUnits="userSpaceOnUse" color-interpolation-filters="sRGB">
<feFlood flood-opacity="0" result="BackgroundImageFix"/>
<feColorMatrix in="SourceAlpha" type="matrix" values="0 0 0 0 0 0 0 0 0 0 0 0 0 0 0 0 0 0 127 0" result="hardAlpha"/>
<feOffset dy="2"/>
<feGaussianBlur stdDeviation="2"/>
<feComposite in2="hardAlpha" operator="out"/>
<feColorMatrix type="matrix" values="0 0 0 0 0.372549 0 0 0 0 0 0 0 0 0 0.807843 0 0 0 0.25 0"/>
<feBlend mode="normal" in2="BackgroundImageFix" result="effect1_dropShadow_204_315"/>
<feBlend mode="normal" in="SourceGraphic" in2="effect1_dropShadow_204_315" result="shape"/>
</filter>
</defs>
</svg>
