<svg width="33" height="35" viewBox="0 0 33 35" fill="none" xmlns="http://www.w3.org/2000/svg">
<path fill-rule="evenodd" clip-rule="evenodd" d="M6.02368 13.375C6.02368 7.78312 10.5568 3.25 16.1487 3.25C21.7406 3.25 26.2737 7.78312 26.2737 13.375C26.2737 18.9669 21.7406 23.5 16.1487 23.5C10.5568 23.5 6.02368 18.9669 6.02368 13.375ZM16.1487 0C8.76187 0 2.77368 5.98819 2.77368 13.375C2.77368 16.1128 3.59626 18.6584 5.00776 20.7783L0.71546 27.3337C0.442577 27.7597 0.340834 28.2731 0.430388 28.771C0.519943 29.269 0.79423 29.7149 1.19864 30.0189C1.60281 30.3232 2.10709 30.4636 2.61038 30.4118L5.42803 30.1057L6.28042 32.8115C6.43374 33.2965 6.76523 33.7057 7.20856 33.9556C7.65187 34.2052 8.17348 34.2774 8.66765 34.1572C9.16207 34.0371 9.59248 33.7335 9.87149 33.3081L14.2553 26.617C14.8738 26.7047 15.5059 26.75 16.1487 26.75C17.0559 26.75 17.9421 26.6597 18.7987 26.4875L23.2563 33.3084C23.6185 33.8722 24.2411 34.2145 24.9112 34.2187C25.0047 34.2271 25.0989 34.2271 25.1925 34.2187C25.5723 34.1723 25.9302 34.0171 26.224 33.7718C26.5175 33.5266 26.7341 33.2019 26.8476 32.8367L27.6916 30.1226L30.5092 30.4288C31.0154 30.4825 31.5232 30.3421 31.9296 30.0354C32.3361 29.7288 32.6109 29.2791 32.6981 28.7774C32.7856 28.276 32.6789 27.76 32.3999 27.334L27.6987 20.1238C28.8587 18.1427 29.5237 15.8365 29.5237 13.375C29.5237 5.98819 23.5355 0 16.1487 0ZM26.1454 22.2609C24.8127 23.7591 23.1484 24.9557 21.2675 25.7355L24.7958 31.1233L25.6234 28.409C25.7101 28.1328 25.8909 27.8953 26.134 27.7383C26.3773 27.581 26.6677 27.5142 26.9554 27.5486L28.3704 27.6996L29.7855 27.8506L26.1454 22.2609ZM11.7062 25.9945C9.78139 25.3169 8.05822 24.2114 6.65095 22.7922L3.34721 27.8504L6.17728 27.5484C6.46162 27.5191 6.7474 27.5885 6.98629 27.7453C7.22518 27.9022 7.40264 28.1366 7.48891 28.409L8.34533 31.1233L11.7062 25.9945Z" fill="#FFB800"/>
<path d="M18.912 7.53529C18.0847 7.53318 17.2729 7.75918 16.566 8.18892C15.6451 7.63776 14.5592 7.42961 13.4998 7.60119C12.4407 7.77303 11.4759 8.31339 10.7764 9.12737C10.0771 9.9413 9.68767 10.9761 9.67717 12.0494C9.67271 12.1169 9.67271 12.1844 9.67717 12.2519C9.69405 12.6974 9.77633 13.1379 9.92121 13.5594C10.4881 15.4255 12.0478 17.2292 14.8324 19.2318V19.232C15.3331 19.5942 15.9356 19.7883 16.5536 19.7864C17.1713 19.7878 17.7746 19.597 18.2788 19.2402C21.1047 17.2046 22.7307 15.3055 23.2437 13.4478H23.2439C23.3592 13.0872 23.4261 12.7128 23.4425 12.3347V12.074C23.4392 10.8727 22.9612 9.72145 22.1123 8.87116C21.2636 8.0211 20.1133 7.54074 18.912 7.53534L18.912 7.53529ZM20.9807 12.1815C20.9732 12.3574 20.9427 12.5311 20.8897 12.6987V12.7484C20.538 14.0392 19.1809 15.5412 16.8598 17.2169C16.6945 17.3325 16.4746 17.3325 16.3096 17.2169C14.0379 15.5867 12.6768 14.1098 12.2921 12.8229V12.765C12.2213 12.5625 12.1808 12.3506 12.1721 12.1361V12.0782C12.1786 11.5341 12.3993 11.0145 12.7863 10.6322C13.1731 10.2496 13.6952 10.0348 14.2393 10.0346C14.7832 10.0341 15.3055 10.2482 15.693 10.6301L16.5785 11.5237L17.4598 10.6301C17.8471 10.2393 18.3743 10.0189 18.9245 10.0177C19.478 10.0177 20.0087 10.2395 20.3975 10.6338C20.7864 11.0282 21.0009 11.5617 20.9931 12.1155L20.9807 12.1815Z" fill="#FFB800"/>
</svg>
