<svg width="64" height="65" viewBox="0 0 64 65" fill="none" xmlns="http://www.w3.org/2000/svg">
<path fill-rule="evenodd" clip-rule="evenodd" d="M29.8618 15.943C30.7178 15.2075 31.9808 15.2017 32.8435 15.9291L49.5993 30.0573C50.5706 30.8763 50.6942 32.3277 49.8753 33.2992C49.0564 34.2706 47.6051 34.3942 46.6338 33.5752L46.4971 33.4599V43.4183C46.4971 46.715 43.8249 49.3875 40.5287 49.3875H22.3895C19.0933 49.3875 16.4211 46.715 16.4211 43.4183V33.5572L16.4163 33.5613C15.4526 34.3893 14.0003 34.2792 13.1725 33.3154C12.3446 32.3516 12.4547 30.8991 13.4183 30.0712L29.8618 15.943ZM31.3748 20.709L19.5485 30.8702C19.536 30.9784 19.5296 31.0879 19.5296 31.1981V43.4183C19.5296 44.998 20.8101 46.2785 22.3895 46.2785H25.4242V35.7082C25.4242 33.8881 26.8994 32.4127 28.7193 32.4127H34.1903C36.0101 32.4127 37.4853 33.8881 37.4853 35.7082V46.2785H40.5287C42.1081 46.2785 43.3885 44.998 43.3885 43.4183V31.1981C43.3885 31.0699 43.3799 30.9428 43.3631 30.8173L31.3748 20.709ZM28.5327 35.7082C28.5327 35.6051 28.6162 35.5216 28.7193 35.5216H34.1903C34.2933 35.5216 34.3768 35.6051 34.3768 35.7082V46.2163H28.5327V35.7082Z" fill="#7F00FF"/>
</svg>
