<svg width="64" height="65" viewBox="0 0 64 65" fill="none" xmlns="http://www.w3.org/2000/svg">
<path fill-rule="evenodd" clip-rule="evenodd" d="M31.6672 15.3875C23.2452 15.3875 16.3987 22.2341 16.3987 30.6564C16.3987 34.0155 17.4881 37.1245 19.3319 39.648C17.3787 41.5051 15.8441 43.7989 14.8846 46.3733L14.8123 46.5674L14.9558 46.7168C15.7798 47.574 16.6691 48.3679 17.6157 49.0906L18.0045 49.3875L18.1336 48.9156C18.8165 46.4187 20.1722 44.1991 21.9944 42.464C24.6291 44.6261 27.9989 45.9253 31.6672 45.9253C35.3355 45.9253 38.7054 44.6261 41.3401 42.464C43.1623 44.1991 44.518 46.4187 45.201 48.9156L45.33 49.3875L45.7188 49.0906C46.6654 48.3679 47.5547 47.574 48.3787 46.7168L48.5223 46.5674L48.4499 46.3733C47.4904 43.7988 45.9557 41.505 44.0025 39.6479C45.8463 37.1245 46.9357 34.0154 46.9357 30.6564C46.9357 22.2341 40.0892 15.3875 31.6672 15.3875ZM19.5109 30.6564C19.5109 23.9506 24.9615 18.4997 31.6672 18.4997C38.3729 18.4997 43.8235 23.9506 43.8235 30.6564C43.8235 37.3622 38.3729 42.813 31.6672 42.813C24.9615 42.813 19.5109 37.3622 19.5109 30.6564ZM27.7655 24.9468C26.3241 24.9468 25.2345 26.2824 25.2345 27.8248C25.2345 29.3673 26.3241 30.7029 27.7655 30.7029C29.2072 30.7029 30.2965 29.3673 30.2965 27.8248C30.2965 26.2824 29.2071 24.9468 27.7655 24.9468ZM35.569 24.9468C34.1274 24.9468 33.038 26.2824 33.038 27.8248C33.038 29.3673 34.1274 30.7029 35.569 30.7029C37.0104 30.7029 38.1001 29.3673 38.1001 27.8248C38.1001 26.2824 37.0104 24.9468 35.569 24.9468ZM26.2425 32.8118C26.9959 32.4547 27.9496 32.764 28.3153 33.5311C28.953 34.804 30.2233 35.6105 31.6674 35.6105C33.1115 35.6105 34.3818 34.804 35.0193 33.5311C35.3852 32.7643 36.3385 32.4549 37.092 32.8117L36.951 33.1096L37.092 32.8117C37.8616 33.1762 38.1723 34.1316 37.815 34.8861L37.812 34.8925L37.8119 34.8925C36.6569 37.2024 34.2803 38.7231 31.6674 38.7231C29.0569 38.7231 26.6456 37.2043 25.5212 34.8891L25.5198 34.8862C25.1622 34.1317 25.4729 33.1763 26.2425 32.8118Z" fill="#7F00FF"/>
</svg>
