<svg width="73" height="73" viewBox="0 0 73 73" fill="none" xmlns="http://www.w3.org/2000/svg">
<g filter="url(#filter0_d_204_321)">
<circle cx="36.1013" cy="34.759" r="32" fill="#7F00FF"/>
</g>
<path fill-rule="evenodd" clip-rule="evenodd" d="M30.1975 17.759C29.2099 17.759 28.409 18.559 28.409 19.5461V20.6661C24.3194 20.9892 21.1013 24.4072 21.1013 28.5767V43.5635C21.1013 47.9464 24.6574 51.499 29.0436 51.499H43.659C48.0452 51.499 51.6013 47.9464 51.6013 43.5635V28.5767C51.6013 24.4728 48.4837 21.097 44.4859 20.6836V19.5461C44.4859 18.559 43.685 17.759 42.6975 17.759C41.7099 17.759 40.909 18.559 40.909 19.5461V20.6411H31.9859V19.5461C31.9859 18.559 31.185 17.759 30.1975 17.759ZM31.9859 24.7339V23.831H40.909V24.7339C40.909 25.721 41.7099 26.521 42.6975 26.521C43.685 26.521 44.4859 25.721 44.4859 24.7339V23.9026C46.7151 24.2935 48.409 26.2377 48.409 28.5767V29.2874H24.2936V28.5767C24.2936 26.1709 26.0857 24.1828 28.409 23.873V24.7339C28.409 25.721 29.2099 26.521 30.1975 26.521C31.185 26.521 31.9859 25.721 31.9859 24.7339ZM24.2936 43.5635V32.8616H48.409V43.5635C48.409 46.1843 46.2825 48.3091 43.659 48.3091H29.0436C26.4201 48.3091 24.2936 46.1843 24.2936 43.5635ZM29.8129 35.2437C28.8253 35.2437 28.0244 36.0436 28.0244 37.0308C28.0244 38.0179 28.8253 38.8179 29.8129 38.8179C30.8004 38.8179 31.6013 38.0179 31.6013 37.0308C31.6013 36.0436 30.8004 35.2437 29.8129 35.2437ZM36.3513 35.2437C35.3638 35.2437 34.5629 36.0436 34.5629 37.0308C34.5629 38.0179 35.3638 38.8179 36.3513 38.8179C37.3389 38.8179 38.1398 38.0179 38.1398 37.0308C38.1398 36.0436 37.3389 35.2437 36.3513 35.2437ZM42.8898 35.2437C41.9022 35.2437 41.1013 36.0436 41.1013 37.0308C41.1013 38.0179 41.9022 38.8179 42.8898 38.8179C43.8773 38.8179 44.6782 38.0179 44.6782 37.0308C44.6782 36.0436 43.8773 35.2437 42.8898 35.2437ZM29.8129 41.3921C28.8253 41.3921 28.0244 42.1921 28.0244 43.1792C28.0244 44.1664 28.8253 44.9663 29.8129 44.9663C30.8004 44.9663 31.6013 44.1664 31.6013 43.1792C31.6013 42.1921 30.8004 41.3921 29.8129 41.3921ZM36.3513 41.3921C35.3638 41.3921 34.5629 42.1921 34.5629 43.1792C34.5629 44.1664 35.3638 44.9663 36.3513 44.9663C37.3389 44.9663 38.1398 44.1664 38.1398 43.1792C38.1398 42.1921 37.3389 41.3921 36.3513 41.3921ZM42.8898 41.3921C41.9022 41.3921 41.1013 42.1921 41.1013 43.1792C41.1013 44.1664 41.9022 44.9663 42.8898 44.9663C43.8773 44.9663 44.6782 44.1664 44.6782 43.1792C44.6782 42.1921 43.8773 41.3921 42.8898 41.3921Z" fill="#FEF8FF"/>
<defs>
<filter id="filter0_d_204_321" x="0.101318" y="0.759003" width="72" height="72" filterUnits="userSpaceOnUse" color-interpolation-filters="sRGB">
<feFlood flood-opacity="0" result="BackgroundImageFix"/>
<feColorMatrix in="SourceAlpha" type="matrix" values="0 0 0 0 0 0 0 0 0 0 0 0 0 0 0 0 0 0 127 0" result="hardAlpha"/>
<feOffset dy="2"/>
<feGaussianBlur stdDeviation="2"/>
<feComposite in2="hardAlpha" operator="out"/>
<feColorMatrix type="matrix" values="0 0 0 0 0.372549 0 0 0 0 0 0 0 0 0 0.807843 0 0 0 0.25 0"/>
<feBlend mode="normal" in2="BackgroundImageFix" result="effect1_dropShadow_204_321"/>
<feBlend mode="normal" in="SourceGraphic" in2="effect1_dropShadow_204_321" result="shape"/>
</filter>
</defs>
</svg>
