<svg width="57" height="56" viewBox="0 0 57 56" fill="none" xmlns="http://www.w3.org/2000/svg">
<path d="M0.5 28C0.5 12.536 13.036 0 28.5 0C43.964 0 56.5 12.536 56.5 28C56.5 43.464 43.964 56 28.5 56C13.036 56 0.5 43.464 0.5 28Z" fill="#FEF8FF"/>
<path fill-rule="evenodd" clip-rule="evenodd" d="M28.5002 7.60489C17.2363 7.60489 8.10513 16.7361 8.10513 27.9999C8.10513 39.2638 17.2363 48.395 28.5002 48.395C39.7641 48.395 48.8953 39.2638 48.8953 27.9999C48.8953 16.7361 39.7641 7.60489 28.5002 7.60489ZM3.26562 27.9999C3.26562 14.0633 14.5635 2.76538 28.5002 2.76538C42.4369 2.76538 53.7348 14.0633 53.7348 27.9999C53.7348 41.9366 42.4369 53.2345 28.5002 53.2345C14.5635 53.2345 3.26562 41.9366 3.26562 27.9999Z" fill="#FFB800"/>
<path d="M12.3675 44.1325C16.6461 48.4111 22.4491 50.8148 28.5 50.8148L28.5 5.18518C22.4491 5.18518 16.6461 7.58888 12.3675 11.8675C8.08888 16.1461 5.68519 21.9491 5.68519 28C5.68519 34.0509 8.08888 39.8539 12.3675 44.1325Z" fill="#FBECFE"/>
<path fill-rule="evenodd" clip-rule="evenodd" d="M14.0785 42.4214C17.9033 46.2463 23.0909 48.395 28.5 48.395L28.5 53.2345C21.8074 53.2345 15.3889 50.5759 10.6565 45.8435C5.92407 41.1111 3.26543 34.6926 3.26543 28C3.26543 21.3073 5.92407 14.8888 10.6565 10.1564C15.3889 5.42402 21.8074 2.76538 28.5 2.76538L28.5 7.60489C23.0909 7.60489 17.9033 9.75365 14.0785 13.5785C10.2537 17.4033 8.10494 22.5908 8.10494 28C8.10494 33.4091 10.2537 38.5966 14.0785 42.4214Z" fill="#DBA007"/>
<path fill-rule="evenodd" clip-rule="evenodd" d="M36.3559 17.8724H38.1992H38.1993C38.8541 17.8724 39.4819 18.1393 39.945 18.6143C40.4079 19.0894 40.668 19.7337 40.668 20.4056V22.9389C40.668 24.0587 40.2345 25.1325 39.4628 25.9243C38.6912 26.7162 37.6447 27.161 36.5535 27.161H34.4468C33.0879 29.2698 30.7882 30.5381 28.3245 30.5381C25.8607 30.5381 23.5612 29.2698 22.2021 27.161H20.0954C19.0042 27.161 17.9578 26.7162 17.1861 25.9243C16.4145 25.1325 15.981 24.0587 15.981 22.9389V20.4056C15.981 19.7337 16.241 19.0894 16.7039 18.6143C17.167 18.1393 17.7948 17.8724 18.4496 17.8724H20.2929L20.0954 16.285C20.0692 16.0452 20.1441 15.8056 20.3012 15.6262C20.4571 15.4439 20.6819 15.3395 20.9183 15.3391H35.7305C35.9697 15.3371 36.198 15.4419 36.3559 15.6262C36.51 15.807 36.5819 16.0465 36.5534 16.285L36.3559 17.8724ZM18.3497 24.7303C18.8128 25.2053 19.4406 25.4722 20.0954 25.4722H21.3874C21.2183 24.9736 21.0998 24.4587 21.0335 23.9352L20.4986 19.5612H18.4496C18.2314 19.5612 18.022 19.6502 17.8677 19.8085C17.7134 19.9668 17.6267 20.1817 17.6267 20.4056V22.9389C17.6267 23.6109 17.8868 24.2551 18.3497 24.7303ZM38.2991 24.7303C38.762 24.2551 39.0221 23.6109 39.0221 22.9389L39.022 20.4056C39.022 20.1817 38.9353 19.9668 38.7811 19.8085C38.6268 19.6502 38.4174 19.5612 38.1992 19.5612H36.1502L35.6153 23.9352C35.549 24.4587 35.4305 24.9736 35.2613 25.4722H36.5534C37.2082 25.4722 37.836 25.2053 38.2991 24.7303ZM35.177 35.1957C35.5846 35.4784 35.9005 35.8799 36.0842 36.3483L37.3186 39.5148C37.4196 39.7752 37.3884 40.07 37.235 40.3016C37.0816 40.5334 36.8263 40.672 36.5534 40.6718H20.0954C19.8225 40.672 19.5671 40.5334 19.4138 40.3016C19.2604 40.0699 19.2292 39.7751 19.3302 39.5148L20.5645 36.3568C20.7469 35.8869 21.0623 35.4835 21.4699 35.1991C21.8777 34.9147 22.3592 34.762 22.8521 34.7609H24.6871L24.9505 31.5436C27.1119 32.4556 29.5369 32.4556 31.6983 31.5436L31.9617 34.7609H33.7967C34.2887 34.7614 34.7694 34.9128 35.177 35.1957Z" fill="#FFB800"/>
<path fill-rule="evenodd" clip-rule="evenodd" d="M27.9931 15.3391H20.9183C20.6819 15.3395 20.4571 15.4439 20.3012 15.6262C20.1441 15.8056 20.0692 16.0452 20.0954 16.2849L20.2929 17.8723H18.4496C17.7948 17.8723 17.167 18.1392 16.7039 18.6142C16.241 19.0894 15.981 19.7336 15.981 20.4056V22.9389C15.981 24.0587 16.4145 25.1325 17.1861 25.9243C17.9578 26.7161 19.0042 27.161 20.0954 27.161H22.2021C23.5 29.1749 25.6558 30.4223 27.9931 30.5304V15.3391ZM27.9931 32.2213C26.9575 32.1816 25.9271 31.9557 24.9505 31.5436L24.6871 34.7609H22.8521C22.3592 34.7621 21.8777 34.9147 21.4699 35.1992C21.0623 35.4836 20.7469 35.8869 20.5645 36.3568L19.3302 39.5149C19.2292 39.7752 19.2604 40.07 19.4138 40.3017C19.5671 40.5335 19.8225 40.6721 20.0954 40.6719H27.9931V32.2213ZM20.0954 25.4721C19.4406 25.4721 18.8128 25.2052 18.3497 24.7303C17.8868 24.2551 17.6267 23.6108 17.6267 22.9389V20.4056C17.6267 20.1817 17.7134 19.9668 17.8677 19.8085C18.022 19.6502 18.2314 19.5612 18.4496 19.5612H20.4986L21.0335 23.9352C21.0998 24.4586 21.2183 24.9736 21.3874 25.4721H20.0954Z" fill="#DBA007"/>
</svg>
