<svg width="39" height="41" viewBox="0 0 39 41" fill="none" xmlns="http://www.w3.org/2000/svg">
<path fill-rule="evenodd" clip-rule="evenodd" d="M6.78565 16.0226C6.78565 9.32382 12.2541 3.89335 18.9998 3.89335C25.7455 3.89335 31.214 9.32382 31.214 16.0226C31.214 22.7215 25.7455 28.1519 18.9998 28.1519C12.2541 28.1519 6.78565 22.7215 6.78565 16.0226ZM18.9998 0C10.0888 0 2.86505 7.17358 2.86505 16.0226C2.86505 19.3024 3.85736 22.352 5.5601 24.8915L0.382142 32.7446C0.0529529 33.2548 -0.0697842 33.8699 0.0382488 34.4664C0.146282 35.0629 0.477165 35.5971 0.965022 35.9613C1.45258 36.3258 2.06092 36.4941 2.66805 36.432L6.06709 36.0652L7.09536 39.3067C7.28032 39.8877 7.6802 40.3778 8.21501 40.6772C8.7498 40.9763 9.37903 41.0628 9.97516 40.9187C10.5716 40.775 11.0908 40.4113 11.4274 39.9016L16.7157 31.886C17.4619 31.991 18.2245 32.0453 18.9998 32.0453C20.0943 32.0453 21.1633 31.9371 22.1966 31.7308L27.574 39.9019C28.0109 40.5773 28.7621 40.9874 29.5703 40.9924C29.6832 41.0025 29.7968 41.0025 29.9097 40.9924C30.3678 40.9368 30.7997 40.7509 31.1541 40.4571C31.5081 40.1634 31.7695 39.7744 31.9064 39.3369L32.9244 36.0855L36.3235 36.4523C36.934 36.5166 37.5466 36.3484 38.037 35.9811C38.5273 35.6137 38.8589 35.075 38.9641 34.4741C39.0695 33.8733 38.9409 33.2552 38.6043 32.7449L32.933 24.1074C34.3324 21.7342 35.1346 18.9714 35.1346 16.0226C35.1346 7.17358 27.9108 0 18.9998 0ZM31.0593 26.6676C29.4516 28.4624 27.4438 29.8958 25.1748 30.83L29.4312 37.2843L30.4295 34.0327C30.5341 33.7019 30.7522 33.4174 31.0454 33.2292C31.339 33.0408 31.6894 32.9607 32.0364 33.002L33.7434 33.1829L35.4504 33.3637L31.0593 26.6676ZM13.6407 31.1403C11.3187 30.3286 9.23999 29.0042 7.54234 27.304L3.55692 33.3635L6.97095 33.0017C7.31395 32.9666 7.65869 33.0498 7.94688 33.2376C8.23506 33.4256 8.44914 33.7064 8.55321 34.0327L9.58634 37.2843L13.6407 31.1403Z" fill="#8310BB"/>
<path d="M22.3333 9.027C21.3353 9.02447 20.356 9.2952 19.5033 9.81001C18.3924 9.14975 17.0824 8.90039 15.8044 9.10594C14.5267 9.31179 13.3629 9.95912 12.519 10.9342C11.6755 11.9093 11.2057 13.149 11.193 14.4347C11.1876 14.5156 11.1876 14.5964 11.193 14.6773C11.2134 15.2109 11.3126 15.7386 11.4874 16.2436C12.1712 18.4791 14.0528 20.6398 17.4119 23.0388V23.0391C18.016 23.473 18.7428 23.7055 19.4883 23.7033C20.2335 23.705 20.9612 23.4764 21.5695 23.0489C24.9784 20.6104 26.94 18.3353 27.5588 16.1099H27.5591C27.6982 15.678 27.7788 15.2295 27.7986 14.7764V14.4641C27.7946 13.0251 27.218 11.6459 26.194 10.6273C25.1702 9.60897 23.7824 9.03352 22.3334 9.02705L22.3333 9.027ZM24.8288 14.593C24.8198 14.8036 24.783 15.0117 24.7191 15.2125V15.2721C24.2949 16.8184 22.6577 18.6177 19.8577 20.6252C19.6583 20.7636 19.393 20.7636 19.1939 20.6252C16.4535 18.6722 14.8116 16.9029 14.3475 15.3614V15.292C14.2621 15.0493 14.2132 14.7955 14.2027 14.5385V14.4692C14.2106 13.8173 14.4767 13.195 14.9436 12.7369C15.4103 12.2786 16.0401 12.0213 16.6965 12.0211C17.3526 12.0205 17.9827 12.2769 18.4502 12.7344L19.5183 13.805L20.5814 12.7344C21.0486 12.2662 21.6846 12.0022 22.3484 12.0008C23.0161 12.0008 23.6563 12.2665 24.1253 12.7389C24.5945 13.2113 24.8532 13.8505 24.8439 14.5139L24.8288 14.593Z" fill="#8310BB"/>
</svg>
