<svg width="141" height="142" viewBox="0 0 141 142" fill="none" xmlns="http://www.w3.org/2000/svg">
<path d="M93.8493 110.61C93.8493 113.932 92.5305 117.118 90.183 119.467C87.8355 121.816 84.6516 123.135 81.3317 123.135V138.816H24.9459V82.3999H40.6172C40.6172 85.7218 41.936 88.9077 44.2835 91.2566C46.631 93.6055 49.8149 94.9252 53.1348 94.9252C56.4547 94.9252 59.6385 93.6055 61.9861 91.2566C64.3336 88.9077 65.6524 85.7218 65.6524 82.3999H81.3196V98.0686C82.9658 98.067 84.5962 98.3903 86.1173 99.0201C87.6385 99.6498 89.0206 100.574 90.1844 101.739C91.3483 102.904 92.2711 104.287 92.8999 105.809C93.5288 107.331 93.8514 108.963 93.8493 110.61V110.61Z" fill="#F7E6D2"/>
<path d="M81.3275 142H24.9458C24.1019 142 23.2926 141.665 22.6959 141.067C22.0992 140.47 21.7639 139.661 21.7639 138.816V82.4C21.7639 81.9821 21.8463 81.5683 22.0062 81.1822C22.1662 80.7962 22.4006 80.4455 22.6961 80.1501C22.9916 79.8548 23.3424 79.6207 23.7285 79.4611C24.1145 79.3015 24.5282 79.2197 24.9458 79.2202H40.6171C41.4599 79.2202 42.2682 79.5552 42.8641 80.1516C43.4601 80.7479 43.7949 81.5567 43.7949 82.4C43.7949 83.6283 44.0367 84.8446 44.5065 85.9795C44.9762 87.1143 45.6648 88.1454 46.5328 89.014C47.4009 89.8825 48.4314 90.5715 49.5655 91.0416C50.6996 91.5116 51.9152 91.7536 53.1427 91.7536C54.3703 91.7536 55.5859 91.5116 56.72 91.0416C57.8541 90.5715 58.8846 89.8825 59.7527 89.014C60.6207 88.1454 61.3092 87.1143 61.779 85.9795C62.2488 84.8446 62.4906 83.6283 62.4906 82.4C62.4905 81.5595 62.8232 80.7531 63.4156 80.1573C64.0081 79.5614 64.8123 79.2245 65.6523 79.2202H81.3195C81.7371 79.2197 82.1508 79.3015 82.5368 79.4611C82.9229 79.6207 83.2736 79.8548 83.5692 80.1501C83.8647 80.4455 84.0991 80.7962 84.2591 81.1822C84.419 81.5683 84.5014 81.9821 84.5014 82.4V95.2202C88.0404 95.9542 91.2184 97.8863 93.5001 100.691C95.7817 103.496 97.0275 107.002 97.0275 110.618C97.0275 114.235 95.7817 117.741 93.5001 120.545C91.2184 123.35 88.0404 125.282 84.5014 126.016V138.824C84.4992 139.666 84.1642 140.472 83.5694 141.068C82.9747 141.663 82.1686 141.998 81.3275 142V142ZM28.1237 135.624H78.1699V123.139C78.1693 122.721 78.2512 122.308 78.4106 121.921C78.5701 121.535 78.8041 121.184 79.0992 120.888C79.3944 120.593 79.7449 120.358 80.1307 120.198C80.5165 120.038 80.9301 119.956 81.3477 119.956C83.828 119.956 86.2067 118.97 87.9605 117.215C89.7143 115.46 90.6996 113.08 90.6996 110.598C90.6996 108.116 89.7143 105.736 87.9605 103.981C86.2067 102.226 83.828 101.24 81.3477 101.24C80.9301 101.24 80.5165 101.158 80.1307 100.998C79.7449 100.838 79.3944 100.603 79.0992 100.308C78.8041 100.012 78.5701 99.6609 78.4106 99.2747C78.2512 98.8884 78.1693 98.4745 78.1699 98.0566V85.5717H68.5152C67.7857 89.1152 65.8568 92.2984 63.054 94.584C60.2513 96.8696 56.7463 98.1178 53.1306 98.1178C49.5149 98.1178 46.01 96.8696 43.2072 94.584C40.4045 92.2984 38.4756 89.1152 37.7461 85.5717H28.1237V135.624Z" fill="#333333"/>
<path d="M109.516 69.8706C112.836 69.8706 116.02 71.1902 118.368 73.5392C120.715 75.8881 122.034 79.074 122.034 82.3959H137.693V138.816H81.3234V123.151C84.646 123.151 87.8324 121.831 90.1818 119.48C92.5312 117.129 93.8511 113.941 93.8511 110.616C93.8511 107.291 92.5312 104.103 90.1818 101.752C87.8324 99.4014 84.646 98.0807 81.3234 98.0807V82.3999H96.9826C96.982 80.7534 97.3059 79.1229 97.9358 77.6017C98.5656 76.0806 99.489 74.6986 100.653 73.5349C101.817 72.3712 103.199 71.4485 104.72 70.8198C106.241 70.191 107.871 69.8685 109.516 69.8706V69.8706Z" fill="#FBBFA6"/>
<path d="M137.705 142H81.3235C80.9058 142 80.4923 141.918 80.1064 141.758C79.7206 141.598 79.3701 141.363 79.075 141.067C78.7798 140.772 78.5458 140.421 78.3864 140.034C78.2269 139.648 78.1451 139.234 78.1456 138.816V123.152C78.1451 122.734 78.2269 122.32 78.3864 121.933C78.5458 121.547 78.7798 121.196 79.075 120.901C79.3701 120.605 79.7206 120.37 80.1064 120.21C80.4923 120.05 80.9058 119.968 81.3235 119.968C83.8027 119.968 86.1803 118.982 87.9334 117.228C89.6865 115.474 90.6713 113.095 90.6713 110.614C90.6713 108.133 89.6865 105.754 87.9334 104C86.1803 102.246 83.8027 101.261 81.3235 101.261C80.4807 101.261 79.6724 100.926 79.0764 100.329C78.4804 99.733 78.1456 98.9242 78.1456 98.0809V82.4001C78.1456 81.5567 78.4804 80.7479 79.0764 80.1516C79.6724 79.5553 80.4807 79.2203 81.3235 79.2203H94.1278C94.8613 75.6791 96.7923 72.4991 99.5953 70.2161C102.398 67.933 105.902 66.6865 109.516 66.6865C113.131 66.6865 116.634 67.933 119.437 70.2161C122.24 72.4991 124.171 75.6791 124.905 79.2203H137.705C138.123 79.2197 138.537 79.3016 138.923 79.4611C139.309 79.6207 139.659 79.8549 139.955 80.1502C140.25 80.4455 140.485 80.7962 140.645 81.1823C140.805 81.5683 140.887 81.9821 140.887 82.4001V138.816C140.887 139.661 140.552 140.47 139.955 141.068C139.358 141.665 138.549 142 137.705 142V142ZM84.5054 135.624H134.527V85.5839H122.046C121.203 85.5828 120.395 85.2469 119.799 84.6499C119.203 84.053 118.868 83.2438 118.868 82.4001C118.868 79.9183 117.883 77.5381 116.129 75.7833C114.375 74.0284 111.997 73.0425 109.516 73.0425C107.036 73.0425 104.657 74.0284 102.904 75.7833C101.15 77.5381 100.164 79.9183 100.164 82.4001C100.164 83.2445 99.8293 84.0543 99.2325 84.6514C98.6358 85.2485 97.8265 85.5839 96.9826 85.5839H84.5054V95.2203C88.0434 95.9541 91.2205 97.8858 93.5015 100.69C95.7825 103.494 97.0278 106.999 97.0278 110.614C97.0278 114.23 95.7825 117.735 93.5015 120.539C91.2205 123.343 88.0434 125.274 84.5054 126.008V135.624Z" fill="#333333"/>
<path d="M68.802 54.2828C68.802 50.9609 70.1208 47.7751 72.4683 45.4262C74.8158 43.0772 77.9997 41.7576 81.3196 41.7576V26.0728H137.705V82.4889H122.046C122.046 79.167 120.727 75.9811 118.38 73.6322C116.032 71.2833 112.848 69.9636 109.529 69.9636C106.209 69.9636 103.025 71.2833 100.677 73.6322C98.3298 75.9811 97.011 79.167 97.011 82.4889H81.3438V66.8243C79.6966 66.8274 78.0649 66.5053 76.5423 65.8762C75.0198 65.2472 73.6363 64.3237 72.4711 63.1586C71.306 61.9935 70.3821 60.6097 69.7525 59.0866C69.1228 57.5635 68.7998 55.9311 68.802 54.2828V54.2828Z" fill="#FB9E76"/>
<path d="M137.705 85.6728H122.046C121.203 85.6728 120.395 85.3378 119.799 84.7415C119.203 84.1452 118.868 83.3364 118.868 82.493C118.868 81.2647 118.627 80.0484 118.157 78.9136C117.687 77.7788 116.999 76.7477 116.131 75.8791C115.263 75.0105 114.232 74.3216 113.098 73.8515C111.964 73.3814 110.748 73.1395 109.521 73.1395C108.293 73.1395 107.078 73.3814 105.943 73.8515C104.809 74.3216 103.779 75.0105 102.911 75.8791C102.043 76.7477 101.354 77.7788 100.884 78.9136C100.415 80.0484 100.173 81.2647 100.173 82.493C100.173 82.911 100.09 83.3248 99.9305 83.7108C99.7706 84.0969 99.5361 84.4476 99.2406 84.7429C98.9451 85.0383 98.5943 85.2724 98.2083 85.432C97.8222 85.5915 97.4086 85.6734 96.9909 85.6728H81.3237C80.4809 85.6728 79.6726 85.3378 79.0766 84.7415C78.4806 84.1452 78.1458 83.3364 78.1458 82.493V69.6809C74.6068 68.947 71.4288 67.0148 69.1471 64.2101C66.8655 61.4053 65.6198 57.8994 65.6198 54.283C65.6198 50.6665 66.8655 47.1606 69.1471 44.3558C71.4288 41.5511 74.6068 39.619 78.1458 38.885V26.0769C78.1453 25.659 78.2271 25.2451 78.3866 24.8588C78.546 24.4726 78.78 24.1215 79.0752 23.8258C79.3703 23.5301 79.7208 23.2956 80.1066 23.1355C80.4925 22.9755 80.906 22.8931 81.3237 22.8931H137.705C138.549 22.8931 139.359 23.2285 139.955 23.8256C140.552 24.4227 140.887 25.2325 140.887 26.0769V82.493C140.887 82.911 140.805 83.3248 140.645 83.7108C140.485 84.0969 140.251 84.4476 139.955 84.7429C139.66 85.0383 139.309 85.2724 138.923 85.432C138.537 85.5915 138.123 85.6734 137.705 85.6728ZM124.905 79.3092H134.528V29.2567H84.5056V41.7416C84.5056 42.586 84.1704 43.3958 83.5736 43.9929C82.9769 44.5899 82.1676 44.9254 81.3237 44.9254C78.8434 44.9254 76.4647 45.9113 74.7109 47.6662C72.9571 49.421 71.9718 51.8012 71.9718 54.283C71.9718 56.7647 72.9571 59.1449 74.7109 60.8998C76.4647 62.6546 78.8434 63.6405 81.3237 63.6405C82.1676 63.6405 82.9769 63.976 83.5736 64.5731C84.1704 65.1701 84.5056 65.98 84.5056 66.8244V79.3092H94.1361C94.8656 75.7657 96.7945 72.5826 99.5972 70.2969C102.4 68.0113 105.905 66.7632 109.521 66.7632C113.136 66.7632 116.641 68.0113 119.444 70.2969C122.247 72.5826 124.176 75.7657 124.905 79.3092V79.3092Z" fill="#333333"/>
<path d="M31.4794 72.1294C28.1595 72.1294 24.9756 70.8098 22.6281 68.4609C20.2806 66.1119 18.9618 62.9261 18.9618 59.6042H3.29053V3.17993H59.6723V18.8567C56.3524 18.8567 53.1685 20.1763 50.821 22.5253C48.4735 24.8742 47.1546 28.06 47.1546 31.3819C47.1546 34.7038 48.4735 37.8897 50.821 40.2386C53.1685 42.5876 56.3524 43.9072 59.6723 43.9072V59.584H44.0131C44.0158 61.2319 43.6934 62.8641 43.0645 64.3871C42.4357 65.9101 41.5126 67.294 40.3483 68.4594C39.1839 69.6249 37.8012 70.5489 36.2793 71.1787C34.7574 71.8085 33.1263 72.1315 31.4794 72.1294V72.1294Z" fill="#FB743A"/>
<path d="M31.4792 75.3091C27.8678 75.3035 24.368 74.0559 21.5663 71.7756C18.7647 69.4953 16.8315 66.3207 16.0907 62.7838H3.29041C2.87274 62.7838 2.45917 62.7014 2.07336 62.5414C1.68754 62.3813 1.33703 62.1468 1.04189 61.8511C0.746744 61.5554 0.512754 61.2043 0.35329 60.8181C0.193825 60.4318 0.112021 60.0179 0.112551 59.6V3.1798C0.112551 2.33646 0.447354 1.52767 1.04332 0.931341C1.63928 0.335013 2.44759 0 3.29041 0H59.6721C60.5149 0 61.3232 0.335013 61.9192 0.931341C62.5152 1.52767 62.85 2.33646 62.85 3.1798V18.8566C62.8505 19.2745 62.7687 19.6884 62.6092 20.0747C62.4498 20.4609 62.2158 20.8119 61.9206 21.1076C61.6255 21.4033 61.275 21.6379 60.8892 21.798C60.5033 21.958 60.0898 22.0404 59.6721 22.0404C57.1929 22.0404 54.8153 23.0259 53.0622 24.78C51.3092 26.5341 50.3243 28.9132 50.3243 31.3939C50.3243 33.8746 51.3092 36.2538 53.0622 38.0079C54.8153 39.762 57.1929 40.7475 59.6721 40.7475C60.5149 40.7475 61.3232 41.0825 61.9192 41.6788C62.5152 42.2751 62.85 43.0839 62.85 43.9273V59.604C62.8505 60.0219 62.7687 60.4359 62.6092 60.8221C62.4498 61.2084 62.2158 61.5594 61.9206 61.8551C61.6255 62.1508 61.275 62.3854 60.8892 62.5454C60.5033 62.7055 60.0898 62.7879 59.6721 62.7879H46.8719C46.1301 66.3246 44.1959 69.4988 41.3936 71.7784C38.5912 74.0581 35.0908 75.3046 31.4792 75.3091V75.3091ZM6.4723 56.4323H18.9495C19.7923 56.4323 20.6006 56.7673 21.1966 57.3637C21.7926 57.96 22.1274 58.7688 22.1274 59.6121C22.1782 62.0607 23.1861 64.392 24.9347 66.1057C26.6834 67.8194 29.0336 68.7792 31.4813 68.7792C33.9289 68.7792 36.2791 67.8194 38.0278 66.1057C39.7765 64.392 40.7843 62.0607 40.8351 59.6121C40.8351 58.7688 41.1699 57.96 41.7659 57.3637C42.3619 56.7673 43.1702 56.4323 44.013 56.4323H56.4902V46.7798C52.9489 46.0498 49.7677 44.1198 47.4835 41.3153C45.1992 38.5108 43.9519 35.0037 43.9519 31.3859C43.9519 27.768 45.1992 24.2609 47.4835 21.4564C49.7677 18.6519 52.9489 16.7219 56.4902 15.9919V6.36363H6.4723V56.4323Z" fill="#333333"/>
</svg>
