<svg width="107" height="142" viewBox="0 0 107 142" fill="none" xmlns="http://www.w3.org/2000/svg">
<g clip-path="url(#clip0_158_1931)">
<path d="M16.3992 45.966L28.3412 139.317L103.818 96.0638L91.9282 2.68115L16.3992 45.966Z" fill="#EEDECD"/>
<path d="M28.3412 141.998C27.6854 141.998 27.0521 141.761 26.5592 141.332C26.0663 140.902 25.7475 140.31 25.6621 139.664L13.7141 46.3034C13.6467 45.7791 13.737 45.2468 13.9736 44.7733C14.2101 44.2998 14.5824 43.9062 15.0436 43.6421L90.5727 0.359214C90.9583 0.138116 91.393 0.0150928 91.8382 0.00109968C92.2833 -0.0128935 92.725 0.0825773 93.1239 0.27901C93.5229 0.475443 93.8667 0.766746 94.1248 1.12698C94.383 1.48722 94.5473 1.90522 94.6033 2.34376L106.499 95.7264C106.566 96.2504 106.475 96.7822 106.239 97.2552C106.002 97.7283 105.631 98.1215 105.17 98.3857L29.6928 141.649C29.2812 141.881 28.8149 142.002 28.3412 141.998V141.998ZM19.3122 47.3969L30.5085 134.977L100.911 94.631L89.7589 7.02132L19.3122 47.3969Z" fill="#AF495C"/>
<path d="M16.3991 45.9661L3.18152 124.899L28.3412 139.317L16.3991 45.9661Z" fill="#DE6E75"/>
<path d="M28.3413 141.998C27.8675 141.998 27.4019 141.874 26.9918 141.639L1.83208 127.221C1.35565 126.948 0.974545 126.537 0.739788 126.044C0.505031 125.55 0.427826 124.997 0.518511 124.459L13.7341 45.5253C13.8418 44.8912 14.1754 44.3165 14.6741 43.9059C15.1728 43.4954 15.8034 43.2763 16.4512 43.2886C17.099 43.3008 17.7208 43.5436 18.2033 43.9728C18.6859 44.4019 18.9971 44.9888 19.0804 45.6265L31.0224 138.979C31.0707 139.357 31.0374 139.741 30.9247 140.105C30.812 140.468 30.6225 140.804 30.3689 141.09C30.1152 141.375 29.8032 141.604 29.4536 141.761C29.104 141.917 28.7249 141.998 28.3413 141.998V141.998ZM6.14865 123.506L24.9704 134.292L16.0434 64.4499L6.14865 123.506Z" fill="#AF495C"/>
<path d="M50.7139 72.8902C51.9015 72.1301 52.9711 72.7354 53.1011 74.2317L55.6202 103.387C55.7502 104.885 54.8905 106.713 53.7009 107.473C52.5113 108.233 51.4436 107.636 51.3137 106.139L48.7945 76.9843C48.6665 75.4859 49.5243 73.6502 50.7139 72.8902Z" fill="#AF495C"/>
<path d="M78.6927 80.7035C78.5627 79.2072 77.493 78.6158 76.2934 79.3759L73.6243 81.0826L71.9709 61.8702C71.8649 60.6418 71.1192 59.9849 70.1495 60.2707C69.9477 60.3317 69.7558 60.4213 69.5797 60.5366C68.8259 61.0188 68.1541 61.9734 67.8342 63.0808L59.6989 91.424C59.391 92.5056 59.481 93.5376 59.9348 94.1329C60.3887 94.7283 61.1504 94.7799 61.9182 94.2897L69.7956 89.2569L70.1955 93.7896C70.3254 95.286 71.3951 95.8813 72.5827 95.1212C73.7703 94.3611 74.63 92.5413 74.502 91.037L74.1022 86.5063L76.7713 84.7996C77.9589 84.0336 78.8246 82.2019 78.6927 80.7035ZM65.1771 86.4785L68.542 74.7697L69.3257 83.8391L65.1771 86.4785Z" fill="#AF495C"/>
<path d="M91.9282 2.68115L16.3992 45.966L19.6881 70.2568L95.1951 26.9858L91.9282 2.68115Z" fill="#DE6E75"/>
<path d="M19.6881 72.9379C19.0338 72.9388 18.4015 72.7035 17.909 72.276C17.4165 71.8484 17.0973 71.2578 17.011 70.614L13.7141 46.3232C13.6424 45.796 13.7304 45.2595 13.9668 44.7821C14.2032 44.3047 14.5773 43.9078 15.0416 43.6421L90.5707 0.359203C90.9558 0.136924 91.3903 0.012645 91.8356 -0.00256387C92.2808 -0.0177727 92.7229 0.0765607 93.1225 0.272034C93.5221 0.467507 93.8668 0.758049 94.1259 1.11778C94.3849 1.47751 94.5503 1.89526 94.6074 2.33382L97.8743 26.6385C97.9448 27.1651 97.8563 27.7006 97.62 28.1772C97.3837 28.6538 97.0101 29.05 96.5467 29.3157L21.0397 72.5866C20.6282 72.82 20.1619 72.9411 19.6881 72.9379ZM19.3122 47.3829L21.8234 65.9285L92.2881 25.553L89.795 6.99948L19.3122 47.3829Z" fill="#AF495C"/>
<path d="M64.5594 35.2356C64.1021 35.2344 63.6526 35.1182 63.2528 34.8978C62.8531 34.6773 62.5161 34.3599 62.2735 33.9752C62.0309 33.5905 61.8905 33.1509 61.8654 32.6977C61.8403 32.2445 61.9314 31.7924 62.1301 31.3836C63.6596 28.25 64.4994 24.9993 64.4954 22.2289C64.4914 19.4585 63.6317 17.3449 62.1402 16.4916C60.6486 15.6382 58.3914 15.9478 55.9422 17.3469C55.3227 17.6845 54.5945 17.7679 53.9138 17.5791C53.2332 17.3902 52.654 16.9443 52.3006 16.3368C51.9471 15.7293 51.8474 15.0086 52.0228 14.329C52.1983 13.6494 52.6349 13.065 53.2391 12.7011C57.4557 10.2859 61.5723 9.98229 64.8353 11.8438C68.0982 13.7053 69.8876 17.4005 69.8936 22.221C69.8936 25.8388 68.8939 29.8178 66.9886 33.7313C66.7663 34.1828 66.4208 34.5632 65.9913 34.8292C65.5618 35.0952 65.0656 35.236 64.5594 35.2356V35.2356Z" fill="#AF495C"/>
<path d="M81.1879 25.6244C80.7315 25.6235 80.2829 25.5078 79.8838 25.2882C79.4847 25.0686 79.1481 24.7522 78.9055 24.3685C78.663 23.9848 78.5223 23.5464 78.4966 23.0942C78.4709 22.642 78.5611 22.1906 78.7587 21.7823C80.2862 18.6507 81.1259 15.4001 81.1219 12.6276C81.1179 9.85524 80.2602 7.74567 78.7687 6.89232C77.2772 6.03896 75.0179 6.34855 72.5707 7.74766C72.2634 7.9237 71.9241 8.03794 71.5723 8.08384C71.2205 8.12975 70.8631 8.10643 70.5204 8.01521C70.1776 7.92399 69.8564 7.76666 69.5749 7.5522C69.2934 7.33774 69.0573 7.07036 68.8799 6.76531C68.7026 6.46026 68.5875 6.12352 68.5412 5.77433C68.495 5.42513 68.5185 5.07031 68.6104 4.73012C68.7023 4.38994 68.8608 4.07105 69.0769 3.79167C69.2929 3.51229 69.5623 3.27788 69.8696 3.10184C74.0862 0.686652 78.2029 0.381034 81.4658 2.24452C84.7287 4.108 86.5181 7.79131 86.5261 12.6197C86.5261 16.2395 85.5265 20.2165 83.6211 24.1301C83.3966 24.5799 83.0497 24.9583 82.6196 25.2224C82.1896 25.4865 81.6936 25.6258 81.1879 25.6244Z" fill="#AF495C"/>
<path d="M47.9327 44.8447C47.4751 44.8446 47.0249 44.729 46.6246 44.5089C46.2242 44.2887 45.8868 43.9712 45.6439 43.5861C45.4011 43.2011 45.2608 42.7611 45.2362 42.3074C45.2117 41.8538 45.3037 41.4014 45.5035 40.9927C47.031 37.8611 47.8708 34.6104 47.8668 31.838C47.8628 29.0656 47.005 26.956 45.5135 26.1007C44.022 25.2453 41.7628 25.5589 39.3156 26.958C39.0083 27.134 38.669 27.2483 38.3172 27.2942C37.9654 27.3401 37.608 27.3168 37.2652 27.2256C36.9225 27.1343 36.6012 26.977 36.3198 26.7626C36.0383 26.5481 35.8022 26.2807 35.6248 25.9757C35.4474 25.6706 35.3324 25.3339 35.2861 24.9847C35.2399 24.6355 35.2634 24.2807 35.3553 23.9405C35.4472 23.6003 35.6057 23.2814 35.8217 23.002C36.0378 22.7226 36.3072 22.4882 36.6145 22.3122C40.8311 19.895 44.9457 19.5914 48.2106 21.4549C51.4756 23.3184 53.263 27.0017 53.271 31.8301C53.271 35.4499 52.2713 39.4269 50.3659 43.3404C50.1431 43.7922 49.7968 44.1728 49.3666 44.4388C48.9364 44.7047 48.4396 44.8454 47.9327 44.8447Z" fill="#AF495C"/>
<path d="M31.3083 54.3111C30.8509 54.3108 30.401 54.1952 30.0009 53.9752C29.6008 53.7552 29.2635 53.4379 29.0207 53.0531C28.778 52.6683 28.6376 52.2286 28.6128 51.7752C28.588 51.3219 28.6796 50.8697 28.8791 50.4611C30.4086 47.3275 31.2483 44.0768 31.2443 41.3064C31.2403 38.536 30.3826 36.4224 28.8891 35.5691C27.3956 34.7157 25.1403 35.0253 22.7011 36.4244C22.0816 36.762 21.3534 36.8454 20.6728 36.6565C19.9921 36.4677 19.4129 36.0218 19.0595 35.4143C18.706 34.8068 18.6063 34.086 18.7817 33.4065C18.9572 32.7269 19.3938 32.1425 19.998 31.7786C24.2146 29.3634 28.3312 29.0578 31.5942 30.9213C34.8571 32.7848 36.6465 36.478 36.6525 41.2985C36.6525 44.9163 35.6528 48.8933 33.7475 52.8088C33.5244 53.2616 33.1772 53.6428 32.7457 53.9085C32.3143 54.1742 31.816 54.3138 31.3083 54.3111V54.3111Z" fill="#AF495C"/>
<path d="M83.2151 50.9711C85.0565 49.9173 85.0845 52.785 85.0865 52.9358C85.1745 56.0357 80.9739 61.902 80.754 62.2116C80.532 62.156 76.3094 61.1161 76.3814 57.923C76.3814 57.7721 76.3934 54.8807 78.2348 53.8269C78.2844 53.7966 78.3358 53.7695 78.3887 53.7455C80.0082 52.8445 80.696 54.6326 80.732 54.7279C80.768 54.5929 81.4417 52.0249 83.0612 51.0664L83.2151 50.9711Z" fill="#E89397"/>
</g>
<defs>
<clipPath id="clip0_158_1931">
<rect width="106.039" height="142" fill="white" transform="translate(0.480469)"/>
</clipPath>
</defs>
</svg>
