<svg width="257" height="163" viewBox="0 0 257 163" fill="none" xmlns="http://www.w3.org/2000/svg">
<circle cx="177.708" cy="83.6242" r="75" transform="rotate(2.79076 177.708 83.6242)" fill="#FEF8FF"/>
<path d="M140.071 65.3919C133.855 66.1991 128.922 65.3402 125.272 62.8152C121.662 60.2389 119.491 56.1376 118.761 50.5114L116.878 36.0147C116.141 30.343 117.195 25.8461 120.04 22.5239C122.924 19.1504 127.519 17.0542 133.826 16.2352C141.403 15.2512 147.366 16.7606 151.716 20.7635L148.548 24.0816C144.883 20.7281 140.124 19.4314 134.27 20.1914C129.552 20.8042 126.137 22.4011 124.027 24.982C121.956 27.5117 121.207 30.9771 121.778 35.3783L123.661 49.875C124.238 54.3216 125.877 57.5231 128.576 59.4794C131.27 61.3904 134.953 62.0425 139.626 61.4356C143.71 60.9053 146.851 59.69 149.05 57.7896C151.248 55.8893 152.174 53.6006 151.826 50.9236L151.26 46.5678C150.995 44.526 150.25 43.054 149.026 42.1518C147.796 41.2043 146.159 40.8631 144.118 41.1282L135.95 42.1888L135.438 38.2414L144.626 37.0482C151.341 36.1762 155.12 38.9843 155.963 45.4727L156.625 50.5772C156.955 53.1181 156.493 55.4159 155.237 57.4706C154.026 59.5194 152.105 61.2454 149.473 62.6484C146.88 64.0001 143.746 64.9146 140.071 65.3919Z" fill="#FFB800"/>
<path d="M176.077 60.7161C171.812 61.27 168.339 60.6368 165.657 58.8165C163.015 56.945 161.44 54.0582 160.934 50.1561L159.785 41.3084C159.278 37.4063 160.066 34.2358 162.148 31.7969C164.27 29.3067 167.464 27.7846 171.729 27.2308C175.994 26.6769 179.447 27.3357 182.09 29.2072C184.771 31.0275 186.366 33.8887 186.872 37.7907L188.021 46.6385C188.528 50.5406 187.72 53.7367 185.598 56.2269C183.516 58.6658 180.342 60.1622 176.077 60.7161ZM175.6 57.0409C178.458 56.6697 180.562 55.6353 181.91 53.9376C183.304 52.2341 183.821 49.9984 183.461 47.2307L182.312 38.3829C181.953 35.6152 180.882 33.5857 179.099 32.2946C177.362 30.9977 175.065 30.5348 172.206 30.906C169.348 31.2772 167.221 32.3146 165.828 34.0181C164.48 35.7157 163.985 37.9484 164.345 40.7162L165.494 49.564C165.853 52.3317 166.901 54.3641 168.638 55.6611C170.421 56.9522 172.741 57.4121 175.6 57.0409Z" fill="#FFB800"/>
<path d="M165.564 117.765C157.129 118.861 150.425 117.812 145.452 114.619C140.53 111.359 137.587 106.014 136.622 98.5814L134.163 79.6472C133.198 72.2151 134.682 66.3243 138.616 61.9748C142.601 57.5586 148.811 54.8028 157.246 53.7075C163.321 52.9185 168.402 53.2483 172.489 54.697C176.635 56.1379 180.077 58.6299 182.817 62.1728L174.188 69.8611C171.977 67.1493 169.754 65.2786 167.521 64.249C165.288 63.2194 162.284 62.9498 158.509 63.44C153.791 64.0528 150.482 65.5921 148.583 68.058C146.735 70.4572 146.087 73.7802 146.638 78.0272L149.097 96.9613C149.649 101.208 151.128 104.285 153.535 106.192C155.993 108.032 159.581 108.645 164.3 108.033C168.429 107.496 171.467 106.412 173.415 104.78C175.413 103.081 176.24 100.904 175.895 98.2497L175.539 95.5069C175.064 91.8498 173.146 90.2396 169.784 90.6762L159.697 91.986L158.433 82.2535L172.059 80.4841C176.778 79.8713 180.4 80.5106 182.924 82.402C185.449 84.2933 187.01 87.5394 187.608 92.1403L188.309 97.5374C188.998 102.846 187.297 107.296 183.204 110.886C179.112 114.476 173.232 116.769 165.564 117.765Z" fill="#FFB800"/>
<path d="M212.973 111.609C206.838 112.405 201.936 111.602 198.265 109.2C194.594 106.798 192.418 102.972 191.736 97.7221L190.311 86.7509C189.63 81.5012 190.757 77.2463 193.692 73.9861C196.628 70.7258 201.162 68.6974 207.297 67.9008C213.431 67.1042 218.334 67.907 222.005 70.3094C225.676 72.7117 227.852 76.5377 228.534 81.7873L229.958 92.7586C230.64 98.0082 229.513 102.263 226.578 105.523C223.642 108.784 219.107 110.812 212.973 111.609ZM211.824 102.761C214.242 102.447 216.016 101.557 217.145 100.091C218.333 98.6167 218.77 96.6706 218.456 94.2522L217.032 83.281C216.718 80.8626 215.798 79.0927 214.273 77.9712C212.807 76.842 210.864 76.4345 208.446 76.7485C206.027 77.0626 204.224 77.9565 203.036 79.4304C201.907 80.8966 201.499 82.8389 201.813 85.2572L203.238 96.2285C203.552 98.6468 204.442 100.421 205.909 101.55C207.434 102.671 209.405 103.075 211.824 102.761Z" fill="#FFB800"/>
<path d="M231.022 45.2064L242.347 43.7358L246.293 86.5887L238.153 87.6458L231.022 45.2064ZM244.866 107.467C242.919 107.72 241.183 107.285 239.658 106.164C238.125 104.984 237.236 103.45 236.991 101.562C236.746 99.6745 237.214 97.9643 238.394 96.4315C239.567 94.8397 241.127 93.9174 243.073 93.6646C244.902 93.4271 246.586 93.9281 248.127 95.1676C249.659 96.3481 250.548 97.8821 250.794 99.7696C251.039 101.657 250.571 103.367 249.391 104.9C248.261 106.366 246.753 107.222 244.866 107.467Z" fill="#FFB800"/>
<path d="M137.354 151.562C131.092 152.375 126.114 151.522 122.419 149.003C118.723 146.483 116.507 142.388 115.771 136.716L113.888 122.22C113.146 116.503 114.22 111.98 117.109 108.652C120.045 105.318 124.711 103.236 131.108 102.405C135.192 101.875 138.743 102.036 141.76 102.89C144.778 103.744 147.379 105.298 149.563 107.552L145.267 111.778C143.465 109.982 141.482 108.74 139.316 108.052C137.19 107.313 134.653 107.135 131.703 107.518C123.082 108.638 119.299 113.258 120.354 121.38L122.237 135.877C123.297 144.044 128.138 147.568 136.759 146.448C140.525 145.959 143.383 144.873 145.333 143.189C147.328 141.5 148.163 139.408 147.839 136.912L147.371 133.305C147.135 131.49 146.479 130.168 145.402 129.339C144.371 128.504 142.948 128.204 141.133 128.44L133.102 129.483L132.439 124.378L142.104 123.123C145.552 122.676 148.222 123.159 150.113 124.575C152.004 125.99 153.167 128.377 153.603 131.734L154.222 136.499C154.729 140.401 153.45 143.704 150.387 146.409C147.37 149.107 143.025 150.825 137.354 151.562Z" fill="#FFB800"/>
<path d="M173.559 146.86C169.113 147.437 165.526 146.819 162.799 145.005C160.111 143.139 158.511 140.232 157.998 136.285L156.867 127.573C156.354 123.626 157.162 120.43 159.29 117.985C161.457 115.489 164.764 113.952 169.211 113.375C173.657 112.797 177.224 113.441 179.912 115.307C182.594 117.127 184.191 120.011 184.703 123.958L185.835 132.67C186.347 136.618 185.543 139.836 183.421 142.327C181.293 144.771 178.006 146.282 173.559 146.86ZM172.949 142.164C175.445 141.84 177.288 140.931 178.478 139.439C179.708 137.895 180.164 135.898 179.846 133.448L178.714 124.736C178.396 122.286 177.448 120.494 175.871 119.361C174.333 118.177 172.316 117.747 169.821 118.071C167.28 118.401 165.394 119.338 164.165 120.881C162.974 122.374 162.538 124.345 162.856 126.796L163.988 135.507C164.306 137.957 165.234 139.775 166.772 140.959C168.349 142.092 170.408 142.494 172.949 142.164Z" fill="#FFB800"/>
<path d="M104.471 87.2123C83.4091 101.262 69.2815 95.6358 66.3095 84.3478C63.3375 73.0599 84.3847 59.7471 94.0573 64.4844C106.821 70.7357 76.0982 105.712 8.58709 57.9967M22.3528 80.8386C16.3096 63.8081 8.17055 57.0876 4.85641 55.8561C18.3593 60.119 29.4951 61.6166 39.0028 58.3603" stroke="#FFB800" stroke-width="4" stroke-linecap="round" stroke-linejoin="round"/>
</svg>
