<svg width="158" height="142" viewBox="0 0 158 142" fill="none" xmlns="http://www.w3.org/2000/svg">
<g clip-path="url(#clip0_158_1950)">
<path d="M58.5967 20.2113C58.5967 25.571 60.7463 30.7111 64.5727 34.501C68.399 38.2909 73.5887 40.42 79 40.42V0C76.3204 -2.2043e-08 73.667 0.522797 71.1914 1.53854C68.7158 2.55429 66.4664 4.04308 64.5717 5.91991C62.6771 7.79674 61.1742 10.0248 60.149 12.477C59.1238 14.9291 58.5963 17.5572 58.5967 20.2113V20.2113Z" fill="#E6BA59"/>
<path d="M79 8.16643e-05V40.4201C81.6991 40.4504 84.3774 39.9501 86.8799 38.9481C89.3823 37.946 91.6592 36.4622 93.5787 34.5825C95.4981 32.7028 97.022 30.4646 98.062 27.9976C99.102 25.5305 99.6376 22.8836 99.6376 20.2101C99.6376 17.5366 99.102 14.8897 98.062 12.4226C97.022 9.95552 95.4981 7.71733 93.5787 5.83765C91.6592 3.95796 89.3823 2.47414 86.8799 1.4721C84.3774 0.470068 81.6991 -0.0302671 79 8.16643e-05V8.16643e-05Z" fill="#CFA751"/>
<path d="M78.9159 34.9244C78.2427 34.9244 77.6931 34.0493 77.6931 32.9814C77.6931 31.9135 75.7787 31.0019 73.4384 30.9525C73.4384 30.9525 72.255 30.9264 71.7554 29.3507L71.5503 28.6969C72.1761 27.6395 74.2246 27.5197 76.1022 28.4365H78.2769C81.0301 28.4365 82.8919 26.8607 82.8919 24.6677C82.8919 22.5554 81.3799 21.2479 78.5083 20.0941C74.5639 18.5574 72.1052 16.7889 72.1052 13.4473C72.1052 10.2541 74.3956 7.83448 77.964 7.25887C77.964 5.12314 78.5057 3.37549 79.1683 3.37549C79.831 3.37549 80.3701 4.21415 80.3701 5.24035C80.3701 6.26654 82.2844 7.1573 84.6248 7.22241C84.6248 7.22241 84.9824 7.22241 85.4137 8.44915L85.6398 9.08987C84.9824 10.1317 83.36 10.3921 82.0373 9.6785H79.5523C76.565 9.6785 75.4395 11.447 75.4395 12.9837C75.4395 14.984 76.8753 15.9815 80.2517 17.3671C84.2488 18.9819 86.2657 20.9796 86.2657 24.3994C86.2657 27.4363 84.1331 30.2805 80.136 30.9342C80.1387 33.1247 79.5891 34.9244 78.9159 34.9244Z" fill="#588281"/>
<path d="M157.51 97.4569C157.27 97.224 156.947 97.0949 156.612 97.0978C156.276 97.1008 155.955 97.2355 155.719 97.4725C154.06 99.142 152.535 100.598 150.694 101.395C149.902 101.747 149.046 101.938 148.178 101.958C149.387 99.8895 149.411 97.3423 148.204 95.4905C147.368 94.2064 146.045 93.5214 144.77 93.6881C143.557 93.8522 142.506 94.7716 141.959 96.1442C141.519 97.2952 141.438 98.5502 141.725 99.7475C142.012 100.945 142.655 102.029 143.571 102.861C143.006 103.146 142.412 103.368 141.798 103.523C139.814 104.004 137.727 103.842 135.842 103.062C136.017 101.687 136.105 100.303 136.105 98.918V84.8535C136.105 65.0225 118.3 48.9446 96.3371 48.9446H79V134.827H96.3555C96.9577 134.827 97.5573 134.811 98.1542 134.788C99.3533 136.611 100.968 139.049 102.009 140.63C103.214 142.453 105.186 142.453 106.393 140.63L110.774 133.983C111.153 133.472 111.32 132.836 111.239 132.207C123.598 127.688 132.892 117.715 135.416 105.583C136.742 106.055 138.139 106.299 139.547 106.305C140.523 106.306 141.495 106.184 142.44 105.943C143.78 105.612 145.039 105.02 146.145 104.2C148.01 104.652 149.975 104.469 151.722 103.679C153.973 102.697 155.683 101.075 157.531 99.2228C157.763 98.9847 157.89 98.666 157.886 98.3356C157.882 98.0051 157.747 97.6895 157.51 97.4569ZM145.837 100.934C145.764 101.043 145.685 101.153 145.601 101.257C145.537 101.215 145.477 101.174 145.419 101.127C144.834 100.646 144.413 99.9975 144.215 99.2705C144.017 98.5434 144.051 97.7734 144.312 97.0662C144.509 96.5766 144.838 96.2093 145.101 96.1729H145.148C145.411 96.1729 145.811 96.4541 146.069 96.8552C146.805 97.97 146.708 99.6499 145.837 100.934V100.934Z" fill="#A9555C"/>
<path d="M56.3852 48.9524C55.8066 48.9524 55.2334 48.9707 54.6601 48.9915C51.6208 48.9771 48.5873 49.2589 45.6037 49.8328C44.8306 48.6659 44.0259 47.4444 43.4369 46.5536C42.4271 45.0196 40.773 45.0196 39.7554 46.5536C38.7377 48.0877 37.0889 50.5933 36.0739 52.1274C35.92 52.3613 35.8046 52.618 35.732 52.8879C22.9889 58.4017 12.8253 69.3695 9.31479 83.296C8.98871 84.5827 8.73627 85.8693 8.5259 87.1507H6.84294C3.12464 87.1507 0.111084 89.2344 0.111084 91.7842V108.193C0.111084 110.751 3.12464 112.824 6.84294 112.824H13.0278C18.7473 123.172 29.0291 131.009 42.0721 133.53C44.6545 134.026 47.2756 134.3 49.9057 134.348C50.6368 134.455 51.3757 134.548 52.1225 134.608L56.0854 140.617C57.2897 142.44 59.262 142.44 60.469 140.617L64.2951 134.814H79V48.9524H56.3852Z" fill="#C46169"/>
<path d="M5.48599 99.2047C5.48599 103.187 4.6261 106.417 3.56636 106.417C2.50662 106.417 1.64673 103.187 1.64673 99.2047C1.64673 95.2223 2.50662 91.9927 3.56636 91.9927C4.6261 91.9927 5.48599 95.2223 5.48599 99.2047Z" fill="#A9555C"/>
<path d="M99.1193 56.1696C99.1193 54.7554 97.7256 53.6094 96.0084 53.6094H61.9941C60.2744 53.6094 58.8833 54.7554 58.8833 56.1696C58.8833 57.5865 60.2744 58.7325 61.9941 58.7325H96.0084C97.7256 58.7325 99.1193 57.5865 99.1193 56.1696Z" fill="#4E4F51"/>
<path d="M37.1336 82.4601C37.1336 84.0539 36.6564 85.6119 35.7624 86.9371C34.8684 88.2623 33.5977 89.2952 32.1111 89.9051C30.6244 90.5151 28.9885 90.6746 27.4103 90.3637C25.832 90.0528 24.3823 89.2853 23.2444 88.1583C22.1066 87.0313 21.3317 85.5954 21.0178 84.0322C20.7039 82.469 20.865 80.8487 21.4808 79.3762C22.0966 77.9037 23.1394 76.6452 24.4774 75.7597C25.8153 74.8742 27.3884 74.4016 28.9975 74.4016C30.0661 74.4013 31.1242 74.6095 32.1115 75.0143C33.0987 75.4192 33.9958 76.0128 34.7514 76.7611C35.5069 77.5095 36.1062 78.398 36.515 79.3758C36.9237 80.3537 37.1339 81.4017 37.1336 82.4601V82.4601Z" fill="#4E4F51"/>
<path d="M34.0807 78.6549C34.0807 79.1092 33.9447 79.5533 33.6898 79.9311C33.435 80.3089 33.0727 80.6033 32.6489 80.7772C32.2251 80.9511 31.7588 80.9966 31.3089 80.9079C30.859 80.8193 30.4457 80.6005 30.1213 80.2792C29.797 79.958 29.5761 79.5487 29.4866 79.103C29.3971 78.6574 29.443 78.1955 29.6186 77.7758C29.7941 77.356 30.0914 76.9972 30.4728 76.7448C30.8542 76.4924 31.3026 76.3577 31.7613 76.3577C32.0659 76.3577 32.3675 76.4171 32.6489 76.5325C32.9303 76.648 33.186 76.8172 33.4014 77.0305C33.6167 77.2438 33.7876 77.4971 33.9041 77.7758C34.0207 78.0545 34.0807 78.3532 34.0807 78.6549V78.6549Z" fill="#F6F6F6"/>
</g>
<defs>
<clipPath id="clip0_158_1950">
<rect width="157.778" height="142" fill="white" transform="translate(0.111084)"/>
</clipPath>
</defs>
</svg>
